<?xml version="1.0" encoding="UTF-8" standalone="no"?>
<!-- Created with Inkscape (http://www.inkscape.org/) -->

<svg
   xmlns:dc="http://purl.org/dc/elements/1.1/"
   xmlns:cc="http://creativecommons.org/ns#"
   xmlns:rdf="http://www.w3.org/1999/02/22-rdf-syntax-ns#"
   xmlns:svg="http://www.w3.org/2000/svg"
   xmlns="http://www.w3.org/2000/svg"
   xmlns:sodipodi="http://sodipodi.sourceforge.net/DTD/sodipodi-0.dtd"
   xmlns:inkscape="http://www.inkscape.org/namespaces/inkscape"
   width="90"
   height="145"
   viewBox="0 0 90 145"
   id="svg2"
   version="1.1"
   inkscape:version="0.91 r13725"
   sodipodi:docname="MicroServoSVG.svg">
  <defs
     id="defs4" />
  <sodipodi:namedview
     id="base"
     pagecolor="#ffffff"
     bordercolor="#666666"
     borderopacity="1.0"
     inkscape:pageopacity="0.0"
     inkscape:pageshadow="2"
     inkscape:zoom="2.8"
     inkscape:cx="29.723707"
     inkscape:cy="97.809752"
     inkscape:document-units="px"
     inkscape:current-layer="layer1"
     showgrid="false"
     inkscape:window-width="1538"
     inkscape:window-height="877"
     inkscape:window-x="54"
     inkscape:window-y="-8"
     inkscape:window-maximized="1"
     units="px" />
  <metadata
     id="metadata7">
    <rdf:RDF>
      <cc:Work
         rdf:about="">
        <dc:format>image/svg+xml</dc:format>
        <dc:type
           rdf:resource="http://purl.org/dc/dcmitype/StillImage" />
        <dc:title></dc:title>
      </cc:Work>
    </rdf:RDF>
  </metadata>
  <g
     inkscape:label="Laag 1"
     inkscape:groupmode="layer"
     id="layer1"
     transform="translate(0,-907.36216)">
    <g
       id="g4136"
       transform="matrix(0.06924589,-0.17273016,-0.17221791,-0.06945186,88.846017,1085.0063)">
      <path
         style="fill:#5993ec"
         d="m 737.6358,715.5908 c 0.59699,-3.51219 0.93631,4.14465 0,0 z M 461.21549,695.6855 C 435.22659,683.33868 406.08972,679.49016 379.49567,663.96497 312.14195,633.51633 244.12591,604.452 177.4045,572.6517 c -23.93978,-14.13549 -45.34402,-29.71023 -37.49586,-62.10994 -2.36773,-50.77151 -0.041,-101.95312 -4.02861,-152.50537 -23.87681,-18.81161 -81.791104,-14.58462 -73.524617,-55.46724 7.12324,-18.80227 26.989273,-30.56851 40.353557,-45.71515 9.40155,-14.21049 25.9527,-1.11744 25.22005,-23.93994 20.04853,-16.7135 38.10078,-58.6721 68.69666,-36.82135 25.18544,-7.47529 42.28202,-56.40704 75.5061,-30.6724 30.79812,12.02895 59.86585,25.07041 92.94388,17.81912 17.45106,1.07343 33.90503,14.70525 51.91193,6.27493 14.13815,-5.17383 59.53095,-5.25289 21.7494,2.21439 -14.95569,4.48205 -30.85988,30.14087 -7.29545,19.07797 19.23508,-10.56825 29.37035,29.17521 53.60447,7.36221 14.94359,-2.57891 28.14729,31.30719 24.37073,0.22523 5.89323,-21.28883 -60.77888,-34.53327 -20.43937,-29.30793 38.48605,8.17716 83.09629,36.7158 78.58458,81.33624 6.99862,16.23138 45.41832,14.84378 30.30886,43.73763 -19.01233,38.85889 21.63156,46.3724 49.26626,56.74496 46.84582,5.47604 18.97757,55.95003 -1.04902,76.68841 -10.13651,20.40493 -27.21098,15.15521 -27.87938,39.11333 -13.56273,22.49675 -33.65784,47.0741 -49.68149,59.2594 -8.32909,33.66486 49.02852,24.69322 68.52997,39.05281 33.77964,10.22818 67.24826,22.14718 100.29155,34.07021 -2.22357,20.86099 13.10334,62.61596 -21.07304,42.1771 -58.20296,-13.67383 -117.09791,-26.59329 -172.38602,-49.82504 -23.45311,27.05081 -39.38783,61.30178 -67.47815,83.76719 -4.7744,2.00283 -10.31259,2.25888 -15.196,0.47703 z m 0.67375,-507.6014 c -1.49745,-7.59535 16.36954,3.82973 0,0 z"
         id="path4150"
         inkscape:connector-curvature="0" />
      <path
         style="fill:#acaa6f"
         d="m 737.6358,715.5908 c 0.59699,-3.51219 0.93631,4.14465 0,0 z M 461.21549,695.6855 c -24.47439,-12.42435 -52.59404,-14.38809 -77.02027,-30.78344 -18.82816,-5.15264 -37.02222,-17.7593 -54.5465,-23.57462 -11.65648,-4.22024 -28.64084,-12.29525 -16.79121,-8.65689 -12.66376,-4.60888 -19.89584,-8.51567 -28.64033,-11.30363 -16.29367,-7.08875 -29.85255,-15.82923 -36.70287,-16.41585 -24.81581,-15.91863 -57.81442,-19.67533 -79.71265,-40.92552 -39.30662,-8.62835 -24.72933,-52.82436 -28.66536,-81.8545 -0.74106,-41.52935 -1.33453,-83.0635 -2.44768,-124.58465 -26.87648,-2.68872 -3.35622,-38.34522 -34.39564,-38.91255 -18.242737,-22.26178 -29.535376,10.95625 -13.776696,16.54389 -42.980446,-3.27354 -23.107211,-51.29485 2.823897,-64.45114 9.744719,-23.90767 34.551829,-21.51811 44.294359,-9.49744 -18.47936,-12.5805 -7.38626,-36.89357 11.88388,-26.75364 21.62376,12.10953 37.99208,-26.30033 56.02004,-39.06278 16.38024,-8.57915 24.83359,-37.60916 48.79911,-36.44977 20.98979,9.07667 51.35206,16.16495 75.12396,26.62928 8.35065,6.40003 30.85673,-4.56321 45.37529,0.0513 21.02597,11.82606 44.01619,6.11426 66.29481,2.63265 -20.26373,14.7894 -50.15392,19.99925 -75.62104,5.18249 -13.46266,-3.03668 -40.82604,9.78969 -12.2536,3.30535 19.37351,1.10037 41.6586,15.39918 53.48835,26.90474 -3.32156,10.07431 16.39941,-0.57146 8.8918,18.17584 -12.67678,24.89693 53.94127,46.52605 13.41832,25.47619 -15.46163,-11.79326 -18.0607,-59.14682 6.23713,-57.6274 17.96599,-4.15549 30.26057,25.78147 53.40294,9.25895 18.79219,-0.43072 27.85543,21.99341 14.65203,36.98652 -3.53553,17.73899 -60.15401,27.33094 -23.32068,23.11738 25.31176,2.49691 28.83092,-29.80045 35.9786,-39.14403 9.04281,23.34597 17.17433,41.66111 43.11636,19.53322 -0.39775,-36.42438 -40.14565,-47.61668 -64.63391,-64.94589 -10.62042,-6.27714 -30.96526,-8.76875 -5.99945,-6.00133 31.4991,7.3748 65.47452,23.63019 78.13889,55.63831 6.33525,23.38422 -6.83025,62.16715 -34.69031,76.62884 0.98607,22.05214 7.29995,24.12505 14.91788,5.30512 19.48444,25.14967 16.39077,-32.72778 23.09745,-47.84668 28.66251,2.87553 40.56819,22.32989 18.10184,33.92371 -7.22135,16.07935 -31.40323,32.17326 0.8711,34.36639 13.97039,4.96832 0.27444,-10.40877 13.98055,5.60362 9.65002,5.967 13.5384,6.20262 24.03437,10.24414 11.91157,13.16529 46.65901,8.79422 48.26101,26.75086 3.04196,15.25219 -16.58323,51.08998 -3.96307,17.77199 5.26267,-27.2448 -22.80084,14.59949 -29.64466,19.52311 -4.66911,13.82761 0.0624,44.79885 -20.00566,38.04267 -13.85253,18.37926 -24.66273,19.67998 -27.05587,35.25315 -13.50471,16.022 2.29948,48.37786 -30.04949,34.65769 -13.14843,17.4423 -10.46584,9.86797 -4.81507,-3.59791 -18.08885,-17.99398 -40.42939,-0.15323 -31.50557,15.69367 20.89105,10.20395 43.16657,20.87229 44.7231,-9.43832 -20.66422,37.31795 33.4096,32.94974 54.38282,44.32016 37.74558,11.32047 75.20636,24.28528 112.08089,37.71045 -2.22357,20.86099 13.10334,62.61596 -21.07304,42.1771 -58.20296,-13.67383 -117.09791,-26.59329 -172.38602,-49.82504 -23.45311,27.05081 -39.38783,61.30178 -67.47815,83.76719 -4.77439,2.00283 -10.31265,2.25889 -15.19598,0.47702 z m 38.87361,-38.83327 c 12.08934,-16.30436 56.18999,-59.12721 12.6168,-55.96393 -15.6103,16.06365 -30.39878,48.58196 -13.98323,57.68054 l 1.36643,-1.71661 0,0 z M 330.89785,640.56974 c -6.77816,-3.83121 2.29197,3.59751 0,0 z m -8.31814,-3.64106 c -13.67305,-6.57789 9.15624,6.33971 0,0 z m -30.49988,-13.65399 c -6.77816,-3.83121 2.29197,3.59751 0,0 z m -12.0151,-5.46159 c -6.77816,-3.8312 2.29196,3.59749 0,0 z m -9.24238,-4.09619 c -10.32163,-5.10908 5.80876,4.86983 0,0 z m 232.15383,-10.92704 c 1.53711,-9.87163 -6.62614,8.31173 0,0 z m -273.74457,-7.73341 c -13.67303,-6.57786 9.15628,6.3397 0,0 z m 336.57293,-71.52863 c 3.27992,-22.44229 -10.26093,-15.04841 -11.2464,-2.26936 -14.93387,-5.69324 16.1518,15.6949 11.2464,2.26936 z m -2.17083,-25.62342 c -12.17692,-11.46647 -2.83681,7.06412 0,0 z m 15.52407,-5.20984 c 31.75828,-20.27775 -33.54763,-25.91936 -13.112,-10.20863 -5.13378,7.15636 3.33867,20.5676 13.112,10.20863 z m 19.76926,-19.10485 c -2.17172,-3.13333 -2.65087,1.73834 0,0 z m -10.45053,-5.90979 c 22.08124,-0.96705 -16.32034,-14.96741 -1.899,1.71169 l 1.899,-1.71169 0,0 z m -3.41304,-3.70172 c 2.27652,-3.24453 1.12288,3.33218 0,0 z m 20.26596,2.06827 c 9.07855,-10.12348 -27.42999,-10.00061 -2.29067,-4.69167 -3.2612,3.3436 -5.25151,13.2779 2.29067,4.69167 z m 13.94348,-19.59088 c 3.02341,-15.50119 -4.49284,7.00107 0,0 z m -10.35919,-7.96387 c 7.6698,-26.85971 -41.85247,-19.7999 -20.03166,1.10325 5.63487,-0.0648 20.41538,11.95242 20.03166,-1.10325 z m 26.05863,-11.83441 c -2.27655,-3.24453 -1.12288,3.33218 0,0 z m -0.28357,-3.05837 c 19.73248,-12.9312 8.92737,-17.10255 4.12791,-10.36805 7.90527,-15.67365 8.24945,-18.80278 17.31259,-11.50637 19.12444,-21.24967 -39.92042,-21.5233 -52.53731,-33.46638 -17.63452,-15.13218 -14.78814,30.52983 -2.68119,3.78999 9.76605,7.97058 8.25465,17.31884 -7.93259,23.95346 -14.62558,18.04469 30.72319,14.70312 37.15627,28.51547 l 4.55432,-0.91812 0,0 z M 151.30269,380.0631 c -1.58125,-1.56849 0.79277,5.08681 0,0 z m -21.83735,-65.84207 c 20.81786,-14.02601 -29.467724,-45.46004 3.90956,-39.31816 -11.96931,-34.55669 -46.015487,5.77616 -59.415373,21.06015 6.249288,6.5081 25.445058,-15.63662 26.845983,-0.45748 -19.265469,8.51378 9.9771,19.73244 23.57652,20.99365 l 5.08331,-2.27816 0,0 z M 95.718608,287.44958 c 0.354082,-4.48607 2.933253,3.02941 0,0 z m 10.123812,-6.44008 c 3.72044,-25.04987 21.57123,4.65663 0,0 z m 435.78183,20.94143 c -1.12288,-3.33218 -2.27655,3.24453 0,0 z m 33.68524,-2.42386 c -10.19976,-4.71269 4.38364,7.34943 0,0 z m -25.76477,-3.49287 c 8.45526,-10.99265 -12.1047,10.43268 0,0 z m -91.35225,-16.4796 c -3.40208,-1.03427 -1.6983,1.58617 0,0 z m -4.13982,-0.96316 c -5.09071,-1.48152 -0.92659,1.59423 0,0 z m -165.59034,-7.38317 c 11.30754,-7.90866 23.60161,-30.33065 5.56045,-8.44996 -5.8308,4.2182 -18.80068,22.48361 -5.56045,8.44996 z m 251.31346,1.21275 c -2.21509,-3.11109 -3.74164,1.74436 0,0 z m -378.93782,-5.23343 c -6.65392,2.887 0.18968,-0.6319 0,0 z M 283.749,245.04427 c 9.53408,-19.24108 9.86591,13.57842 18.81635,-4.9914 8.21798,-4.29927 0.46774,-26.33689 9.86825,-14.14681 -6.80558,-17.77139 16.41301,-34.44088 -14.31077,-35.66144 -29.72231,-23.5548 -29.25361,19.49169 -22.0309,36.73677 25.56559,-2.27683 5.19761,-0.55548 -1.12606,8.75165 -4.04607,5.55889 9.0317,15.65017 8.78313,9.31123 z m 15.79583,-27.29291 c 2.78686,-15.19165 3.64388,1.44226 0,0 z m 87.96264,15.3268 c -5.09071,-1.48152 -0.92659,1.59423 0,0 z M 361.55381,216.6744 c 22.58201,-15.2427 -30.57666,-6.3702 -4.26582,0.84089 l 4.26582,-0.84089 z m -30.52728,-13.86407 c 6.30569,-8.06858 -10.01628,6.62393 0,0 z M 230.60442,201.4889 c 20.62785,-30.02536 -28.85882,10.2365 0,0 z m 23.35101,-9.45254 c -8.46148,-4.82407 -11.34016,4.39854 0,0 z m -1.15574,-16.16969 c -6.56939,-7.71256 -5.89907,6.90953 0,0 z M 238.474,600.97319 c -5.8088,-4.86984 10.32161,5.10906 0,0 z m -23.10597,-10.46806 c -9.15627,-6.33971 13.67303,6.57788 0,0 z m 396.0543,-96.60173 c 3.55422,-13.72458 15.75726,-45.08151 9.2556,-11.72393 -0.71976,1.66939 -9.75293,17.2726 -9.2556,11.72393 z m 28.17121,-64.81175 c 10.27476,-16.57978 1.78933,6.52157 0,0 z M 598.14873,308.32279 c 0.80828,-4.10476 0.80828,4.10476 0,0 z m -197.6226,-97.00448 c 1.0041,-10.22166 6.5454,6.28833 0,0 z m -226.74884,-0.84908 c 7.2028,-6.88498 -0.21996,7.09974 0,0 z m -13.86357,-3.95511 c 3.69044,-7.79398 5.77429,2.27911 0,0 z m 29.19511,-3.6521 c -9.11952,-2.48093 -37.50007,1.39182 -15.06042,-11.84626 3.62715,0.81928 31.59683,10.60738 15.06042,11.84626 z m 275.80362,-14.649 c -10.83832,-6.68158 11.13739,1.17373 0,0 z"
         id="path4148"
         inkscape:connector-curvature="0" />
      <path
         style="fill:#3160dd"
         d="m 463.52609,693.92542 c -24.64816,-10.98798 -50.93444,-13.00677 -75.51593,-27.70337 -70.4929,-32.32494 -142.3923,-61.91318 -211.81417,-96.35749 -22.03944,-13.18592 -41.55626,-26.87385 -34.38501,-56.90797 -3.06806,-51.81996 0.47233,-104.14387 -4.76912,-155.68794 -27.67531,-2.86863 -3.61964,-37.90311 -34.74888,-38.59484 -18.242731,-22.26179 -29.53538,10.95623 -13.776696,16.54388 -42.980439,-3.27356 -23.107219,-51.29486 2.823897,-64.45115 9.744719,-23.90766 34.551839,-21.51811 44.294359,-9.49744 -18.47937,-12.58049 -7.38626,-36.89357 11.88388,-26.75364 21.01806,11.97332 36.63238,-24.39072 54.85167,-36.6995 20.29303,-15.02757 37.55308,-52.09587 66.14166,-32.13006 27.85001,5.45087 52.85173,29.56011 81.4083,19.49615 16.39979,-2.67361 31.17399,3.26916 46.48381,7.9932 12.59556,2.35091 65.16694,-12.63192 27.57946,2.75677 -27.77622,23.05589 -57.97536,-16.10405 -87.4618,2.4121 24.56107,-10.68674 41.32271,13.93616 64.29626,16.79203 4.5084,11.89834 1.44901,14.80286 12.53127,14.38221 -9.24739,34.28919 25.92466,54.17971 56.13943,50.32589 27.99831,5.81729 38.62941,-26.70435 44.517,-39.89205 9.0428,23.34594 17.17435,41.66117 43.11636,19.53325 -0.36129,-36.42002 -40.11325,-47.50089 -64.48951,-64.94589 -9.19019,-9.16339 34.07851,7.56445 41.72464,15.32869 29.71846,17.0097 41.98887,58.53458 20.77623,86.88986 -14.7563,8.2101 -37.49495,41.50428 -15.56189,42.12739 -3.69085,-13.39354 13.92961,-17.09632 14.8114,-3.40663 13.78891,-16.12317 0.12648,-72.24762 33.85675,-49.22632 24.21065,10.52954 -9.40066,22.70912 -8.80177,37.82916 -31.02665,24.85033 30.46944,25.11503 44.3531,39.04161 19.20089,7.92954 69.21454,18.92527 34.82086,42.44789 -20.75401,13.9793 -21.97212,35.28915 -27.35608,60.19324 -16.90747,-11.3995 -22.6606,21.27759 -35.08246,20.93411 -0.28586,8.07966 -12.82003,34.0823 -16.93508,49.96005 -15.86062,-13.52535 -37.66491,25.24776 -21.51638,-2.80827 -6.60824,-12.83962 -33.34442,-14.89573 -33.54797,4.2801 0.56052,14.53695 26.96052,16.08795 38.34787,26.44056 57.16201,20.74708 116.05008,36.88709 172.03747,60.75817 4.56421,15.74624 -63.44433,-14.94506 -26.28168,1.56961 22.27102,-4.01904 40.59214,26.40972 22.2965,35.60569 -64.64545,-14.16856 -129.2741,-30.15311 -191.10522,-53.60172 -15.76134,-13.25097 -35.88012,-10.09981 -41.71715,14.45367 -17.87448,25.52153 3.15442,49.81661 17.62942,13.64298 18.34481,-23.44159 -19.96722,35.30165 -28.74453,45.88465 -4.38909,8.04015 -13.74177,14.45554 -23.11027,11.04137 z m -35.87165,-60.19013 c 2.28727,-46.22077 6.37764,-92.34293 8.21799,-138.58395 -85.93019,-35.29588 -171.53023,-71.89507 -258.48787,-104.39491 -0.49003,46.49346 1.95378,93.24916 3.28198,139.8059 67.50457,33.74847 139.3723,57.99583 207.75515,90.0437 11.08622,1.7276 30.91776,19.54148 39.23275,13.12926 z m -18.19631,-7.40026 c -72.3582,-34.26261 -147.75179,-61.48461 -220.29058,-95.26229 -12.91069,-15.59368 -4.04014,-39.49897 17.0733,-20.68653 72.46911,31.03863 145.81926,60.46001 217.28274,93.56579 -0.35345,10.81456 5.327,36.37662 -14.06546,22.38303 z m -76.7118,-45.93469 c -14.50194,-33.16881 -15.22106,18.6836 0,0 z m -7.02972,-0.28637 c -1.2286,-20.62095 5.59599,7.6279 0,0 z m -7.98916,-4.89411 c -1.51926,-13.15989 -5.11314,-1.31741 -9.33073,-10.82698 -3.35971,2.5315 4.58156,18.71902 9.33073,10.82698 z m -14.72643,-5.42327 c -6.41252,-9.74195 -4.46871,9.08835 0,0 z m -10.61655,-5.56608 c 1.3749,-22.39952 -10.83293,11.0155 0,0 z m -8.23858,-1.61674 c -3.53025,-22.34347 -20.00836,-1.85293 -0.95697,1.1872 l 0.95697,-1.1872 0,0 z m 18.10057,-0.21542 c -3.1306,-6.83373 -4.83151,2.60017 0,0 z m 107.21167,30.08778 c -51.737,-24.21652 -105.22298,-44.74271 -156.91579,-68.93548 56.44393,20.89767 110.57116,48.01349 166.9734,69.19252 5.66565,-27.62222 7.97608,-56.05319 -27.65117,-58.68431 -67.47691,-28.45272 -135.0472,-57.2467 -202.89299,-84.46823 -7.5496,28.37208 -0.46995,56.74433 33.28863,60.91351 12.28268,6.01079 -28.86033,-9.56342 -37.32997,-14.56284 -0.50868,-23.87974 -12.44931,-69.86735 24.3891,-41.28277 72.4658,29.41484 144.50716,59.88549 216.65513,90.04398 -1.42544,10.76204 8.87448,70.12748 -16.51634,47.78362 z M 389.12488,555.6916 c -3.86378,-4.18704 12.76911,-14.7084 3.37823,0.42264 l -3.37823,-0.42264 0,0 z m -6.40258,-4.90578 c -4.19239,-18.21429 9.51153,1.39976 0,0 z m -16.2037,-6.9318 c -11.58882,-15.31755 21.36535,-1.52056 1.42173,2.24442 l -1.42173,-2.24442 0,0 z m -51.77338,-2.57008 c -3.0316,-22.65212 14.28653,-4.02405 0,0 z m 109.50073,-1.682 c -79.38968,-33.76227 -159.5151,-65.86579 -238.76485,-99.90335 -0.46986,-6.84519 -13.86938,-49.86108 4.68238,-40.58313 80.68293,31.72245 161.37032,63.70195 240.66315,98.71948 -1.96416,11.719 2.80523,36.99623 -6.58068,41.767 z m -4.62119,-27.40822 c -2.26583,-12.48926 -24.49874,-8.07195 -6.46967,1.39397 2.96884,-3.38363 6.6563,11.37023 6.46967,-1.39397 z m -29.74991,2.7239 c 11.4713,-25.55026 -44.11259,-23.19182 -12.84445,-0.0876 3.8906,1.7036 9.1075,3.01825 12.84445,0.0876 z m -13.29362,-3.30708 c -12.17461,-33.75607 24.92462,5.7918 0,0 z m 22.54808,-6.27407 c 3.26255,-27.33382 -10.58557,15.53671 0,0 z m -34.70924,2.69548 c -3.34466,-9.05955 1.59063,-28.19068 -14.45608,-19.85071 -3.75037,27.62987 4.51519,4.03988 14.45608,19.85071 z m -8.87585,-13.71156 c -3.6137,-12.37243 9.03719,1.75982 0,0 z m -27.23414,-4.62718 c 1.93037,-8.45186 31.01399,-1.76125 11.52792,-19.86966 -21.15605,-26.30243 -29.97895,23.89113 -12.09771,24.28148 l 0.56979,-4.41182 0,0 z m 1.35546,-9.93707 c -7.01527,-22.35101 17.9896,3.03721 0,0 z m -26.56987,-1.62053 c 6.46068,-15.45821 -22.17592,-25.8019 -11.67021,-0.15078 5.78595,-9.17 14.9075,14.72259 11.67021,0.15078 z m -7.90889,-10.0612 c 0.28385,-12.26529 7.7346,6.09228 0,0 z m -10.50086,5.9401 c -7.62599,-6.6693 -2.91835,-10.86923 -2.50541,-15.78166 -8.34785,-19.52844 -15.48602,21.92527 2.50541,15.78166 z m -17.56973,-13.34814 c 8.52192,-19.7271 -8.78021,9.24111 -8.80455,-14.52636 -8.21856,14.95139 -17.64828,-19.39467 -13.79263,4.00517 2.36374,23.33903 14.52185,-7.11415 18.02455,16.51819 l 2.03253,-1.30324 2.5401,-4.69376 0,0 z m -29.22896,-7.67741 c 8.96222,-11.71474 -16.12627,-26.94956 -3.30522,-6.1629 -17.66493,16.41386 -1.71971,-33.56855 -17.97461,-6.77542 1.01253,8.02377 13.64942,18.58732 21.27983,12.93832 z m -27.9314,-18.93941 c -7.09894,-18.588 23.18343,-7.41288 -4.2923,-18.83596 -17.97205,-7.50166 -13.29918,-3.94554 -5.36123,6.81272 -5.22057,11.0928 10.46964,43.79038 9.65353,12.02324 z m 140.9672,103.96359 c -1.86608,-19.85723 11.53707,-6.31362 0,0 z m -56.47275,-4.75936 c 3.92635,-3.735 -12.70587,-20.19447 -2.70683,-14.79655 -4.20773,13.19019 18.80801,-2.71949 5.17488,15.54618 l -2.46811,-0.74963 6e-5,0 z m 12.57214,-1.35344 c 1.67216,-17.59984 4.57721,6.66498 0,0 z m 31.26934,1.35545 c 3.7328,-5.3057 4.97456,2.94983 0,0 z m -7.36139,-4.58888 c -2.03155,-22.5023 12.35492,1.19941 0,0 z m 8.58444,0.27783 c -5.63802,-8.59093 11.81835,0.91133 0,0 z m -25.28187,-6.02888 c -16.81894,-10.69043 22.90816,8.84076 -2.89891,-9.87484 -11.34821,-21.47644 27.10872,21.74849 2.89891,9.87484 z m -70.52755,-2.49534 c -22.21508,-10.92451 22.76245,8.63247 0,0 z m 44.82583,-7.89814 c 3.7979,-18.85279 13.34882,1.10389 0,0 z m -6.39569,-4.83907 c -1.8974,-17.97608 7.90088,-0.85187 0,0 z m -12.57063,-4.285 c -3.88415,-18.38231 11.01132,-7.68038 0,0 z m -11.68189,-3.91974 c 5.06588,-3.33578 3.43154,3.42176 0,0 z m -6.29665,-5.28098 c -2.23042,-16.59199 8.79428,-1.41508 0,0 z m -9.70809,-2.59282 c -4.1701,-13.827 6.53398,-4.44499 0,0 z m -10.23922,-4.49446 c 0.0674,-11.25678 -11.76482,4.83243 -14.09659,-9.8666 -7.00006,9.76235 -0.79118,-27.04123 4.72858,0.30965 5.93041,1.0791 14.89783,-9.37411 10.86249,10.19676 l -0.70089,0.50301 -0.79359,-1.14282 0,0 z m 271.33713,115.67956 c 1.53711,-9.87163 -6.62614,8.31173 0,0 z m 62.82836,-79.26204 c 3.27992,-22.44229 -10.26093,-15.04841 -11.2464,-2.26936 -14.93387,-5.69324 16.1518,15.6949 11.2464,2.26936 z m -2.17083,-25.62342 c -12.17692,-11.46647 -2.83681,7.06412 0,0 z m 15.52407,-5.20984 c 31.75828,-20.27775 -33.54763,-25.91936 -13.112,-10.20863 -5.13378,7.15636 3.33867,20.5676 13.112,10.20863 z m 19.76926,-19.10485 c -2.17172,-3.13333 -2.65087,1.73834 0,0 z m -10.45053,-5.90979 c 22.08124,-0.96705 -16.32034,-14.96741 -1.899,1.71169 l 1.899,-1.71169 0,0 z m -3.41304,-3.70172 c 2.27652,-3.24453 1.12288,3.33218 0,0 z m 20.26596,2.06827 c 9.07855,-10.12348 -27.42999,-10.00061 -2.29067,-4.69167 -3.2612,3.3436 -5.25151,13.2779 2.29067,4.69167 z m 13.94348,-19.59088 c 3.02341,-15.50119 -4.49284,7.00107 0,0 z m -10.35919,-7.96387 c 7.6698,-26.85971 -41.85247,-19.7999 -20.03166,1.10325 5.63487,-0.0648 20.41538,11.95242 20.03166,-1.10325 z m 26.05863,-11.83441 c -2.27655,-3.24453 -1.12288,3.33218 0,0 z m -0.28357,-3.05837 c 19.73248,-12.9312 8.92737,-17.10255 4.12791,-10.36805 7.90527,-15.67365 8.24945,-18.80278 17.31259,-11.50637 19.12444,-21.24967 -39.92042,-21.5233 -52.53731,-33.46638 -17.63452,-15.13218 -14.78814,30.52983 -2.68119,3.78999 9.76605,7.97058 8.25465,17.31884 -7.93259,23.95346 -14.62558,18.04469 30.72319,14.70312 37.15627,28.51547 l 4.55432,-0.91812 0,0 z M 151.30269,380.0631 c -1.58125,-1.56849 0.79277,5.08681 0,0 z m -21.83735,-65.84207 c 20.81786,-14.02601 -29.467724,-45.46004 3.90956,-39.31816 -11.96931,-34.55669 -46.015487,5.77616 -59.415373,21.06015 6.249288,6.5081 25.445058,-15.63662 26.845983,-0.45748 -19.265469,8.51378 9.9771,19.73244 23.57652,20.99365 l 5.08331,-2.27816 0,0 z M 95.718608,287.44958 c 0.354082,-4.48607 2.933253,3.02941 0,0 z m 10.123812,-6.44008 c 3.72044,-25.04987 21.57123,4.65663 0,0 z m 435.78183,20.94143 c -1.12288,-3.33218 -2.27655,3.24453 0,0 z m 33.68524,-2.42386 c -10.19976,-4.71269 4.38364,7.34943 0,0 z m -25.76477,-3.49287 c 8.45526,-10.99265 -12.1047,10.43268 0,0 z M 288.46231,271.20827 c 11.30754,-7.90866 23.60161,-30.33065 5.56045,-8.44996 -5.8308,4.2182 -18.80068,22.48361 -5.56045,8.44996 z m 251.31346,1.21275 c -2.21509,-3.11109 -3.74164,1.74436 0,0 z m -378.93782,-5.23343 c -6.65392,2.887 0.18968,-0.6319 0,0 z M 283.749,245.04427 c 9.53408,-19.24108 9.86591,13.57842 18.81635,-4.9914 8.21798,-4.29927 0.46774,-26.33689 9.86825,-14.14681 -6.80558,-17.77139 16.41301,-34.44088 -14.31077,-35.66144 -29.72231,-23.5548 -29.25361,19.49169 -22.0309,36.73677 25.56559,-2.27683 5.19761,-0.55548 -1.12606,8.75165 -4.04607,5.55889 9.0317,15.65017 8.78313,9.31123 z m 15.79583,-27.29291 c 2.78686,-15.19165 3.64388,1.44226 0,0 z m 87.96264,15.3268 c -5.09071,-1.48152 -0.92659,1.59423 0,0 z M 361.55381,216.6744 c 22.58201,-15.2427 -30.57666,-6.3702 -4.26582,0.84089 l 4.26582,-0.84089 z m -30.52728,-13.86407 c 6.30569,-8.06858 -10.01628,6.62393 0,0 z M 230.60442,201.4889 c 20.62785,-30.02536 -28.85882,10.2365 0,0 z m 23.35101,-9.45254 c -8.46148,-4.82407 -11.34016,4.39854 0,0 z m -1.15574,-16.16969 c -6.56939,-7.71256 -5.89907,6.90953 0,0 z m 273.98854,446.09316 c 8.04082,-7.38222 -4.9032,6.93458 0,0 z m 4.22105,-5.31297 c 6.77013,-6.90061 -5.6077,7.87855 0,0 z M 639.59354,429.09165 c 10.27476,-16.57978 1.78933,6.52157 0,0 z M 400.52613,211.31831 c 1.0041,-10.22166 6.5454,6.28833 0,0 z m -226.74884,-0.84908 c 7.2028,-6.88498 -0.21996,7.09974 0,0 z m -13.86357,-3.95511 c 3.69044,-7.79398 5.77429,2.27911 0,0 z m 29.19511,-3.6521 c -9.11952,-2.48093 -37.50007,1.39182 -15.06042,-11.84626 3.62715,0.81928 31.59683,10.60738 15.06042,11.84626 z"
         id="path4146"
         inkscape:connector-curvature="0" />
      <path
         style="fill:#2b4ca5"
         d="m 463.52609,693.92542 c -24.64816,-10.98798 -50.93444,-13.00677 -75.51593,-27.70337 -70.4929,-32.32494 -142.3923,-61.91318 -211.81417,-96.35749 -21.98015,-13.18904 -41.55609,-26.80067 -34.38054,-56.80878 -2.84764,-51.58737 0.008,-103.54668 -4.46987,-154.93865 -38.167472,-18.02167 9.37844,-50.07659 -2.81406,-79.01062 -6.01955,-18.97184 34.96907,-34.87201 2.35121,-37.63883 -23.61058,-16.16546 34.89343,14.34253 36.30737,-14.5141 23.31296,-23.41484 46.50557,-47.21128 71.87456,-68.36993 26.72706,8.93278 60.65783,17.25126 82.23995,31.40461 -14.93403,14.86633 -32.82439,-7.18844 -49.6788,-7.89313 -13.70191,-1.12954 -7.57938,53.39538 -13.70276,18.57318 7.8686,-18.02125 -21.80107,-13.31366 -28.57613,-16.0432 -23.86988,18.1862 -42.77817,44.63295 -64.30959,66.45391 23.22876,9.22638 8.54624,13.97731 2.6586,10.47733 10.52838,15.56255 48.14843,39.31778 61.00774,17.30303 -13.03399,-3.6599 -15.69836,12.90277 -16.56292,-4.41077 39.33292,6.13002 -2.48787,-66.77614 44.60793,-49.00406 11.32863,2.62422 -8.0779,8.57899 3.45247,18.62264 3.69711,25.47416 -21.1543,65.22651 20.28114,71.11118 18.31483,8.23839 0.14657,-12.6301 13.37216,-16.12174 7.55138,-10.77682 5.4519,-21.56652 9.43084,-30.94085 6.75194,-10.79127 25.93861,1.22903 11.40633,-15.87806 29.9612,-8.51538 34.29242,25.31351 54.75427,40.60736 26.26271,11.75402 -29.55955,-24.43669 -21.33645,-41.3454 -16.24079,-12.73699 -8.04289,-39.36248 13.99083,-36.2276 -2.62504,13.22441 11.88758,10.58953 2.95963,26.45487 0.32069,16.56772 31.68357,29.50183 29.16463,3.42975 9.54907,-19.13909 17.41439,-11.77869 11.8324,5.1719 11.17879,30.17679 52.99614,35.45953 79.59215,24.5286 12.4559,-13.85632 29.94753,-0.61938 18.54258,-24.36912 14.25357,-5.09823 7.78929,31.28925 -6.26138,38.55049 -15.22795,31.19794 15.99276,26.00766 36.36678,17.73317 -7.81143,16.26923 -57.45551,18.69111 -39.21367,39.07224 10.33969,6.71281 19.24674,-15.6979 17.28517,9.05945 -3.59081,9.59784 40.81169,-8.93847 40.47159,-26.84832 8.72211,-12.26981 -0.52431,-30.54686 20.67789,-24.75368 -10.87148,-3.51019 -20.91221,-12.37636 -8.81345,-23.83002 17.57136,0.27965 41.44042,21.24926 13.15773,27.40078 -4.60056,21.96864 -22.60887,40.14297 -31.63907,60.6179 8.1839,-30.78996 -33.18723,21.2118 -7.92751,27.30793 9.02223,-11.22385 26.35398,-22.58608 9.10694,-1.40791 -8.20378,12.10837 -37.94289,-5.79604 -23.2136,16.88242 2.73565,27.02963 25.49443,-24.13069 38.92933,-28.24617 17.34933,-8.38919 -1.0198,-34.61921 12.45292,-35.47766 -0.16304,19.25999 4.06721,22.16223 7.89158,1.15395 26.05897,14.05199 56.01808,21.95365 81.71888,35.76867 0.13695,16.52364 -8.44174,20.63562 -9.23425,3.90169 -20.50594,-6.98465 -61.94007,-29.78562 -72.36094,-20.44731 -1.90752,15.75935 -28.31357,47.84898 2.87098,47.70649 -16.01602,11.6122 -7.16347,45.82413 -21.26003,39.67506 11.03264,19.94454 -36.71069,6.89877 -18.69728,26.4392 -0.0134,16.4856 -39.53355,-9.14905 -16.10622,5.52187 19.15369,4.88666 26.82694,23.04145 1.50741,12.92719 -5.33133,9.6459 1.13501,25.36073 -10.19188,32.04792 -15.41507,20.95759 25.41534,23.7297 38.74614,34.74532 55.91838,20.08144 113.40313,36.01045 168.10358,59.34048 4.56421,15.74624 -63.44433,-14.94506 -26.28168,1.56961 22.27101,-4.01904 40.59216,26.40973 22.2965,35.60569 -64.64545,-14.16856 -129.2741,-30.15311 -191.10522,-53.60172 -20.91108,-18.90396 -37.95961,0.14257 -47.34951,22.72288 -2.80017,14.19507 -0.12292,29.85743 10.11969,22.36352 8.69527,-10.23012 31.60837,-42.41157 13.55657,-13.64428 -17.13861,18.28585 -21.94534,48.94344 -48.53205,54.38827 l -3.73725,-0.80775 -2.6e-4,-3e-5 z m 13.86869,-12.40187 c 1.13406,-11.41062 -7.162,3.77167 0,0 z m 1.342,-20.69539 c 8.17797,-19.41218 -4.80165,-30.41686 -3.49737,-4.84111 -1.34316,8.59003 2.00035,21.09004 3.49737,4.84111 z m -41.68569,3.63605 c -6.73671,-26.60356 -54.86927,-27.18156 -77.75107,-43.23107 -53.17382,-23.8218 -107.5415,-44.52571 -160.29907,-69.08829 -21.60361,-16.61079 -22.55061,10.68656 -0.96742,13.16512 57.53953,28.20016 117.69589,50.74474 176.17573,77.06567 19.95422,5.15977 45.58509,25.92381 62.84183,22.08857 z m 14.93519,-18.48527 c 3.37426,-29.15284 -11.94412,-8.39169 -4.50064,8.8586 4.16666,3.25859 3.6678,-7.93545 4.50064,-8.8586 z m -24.33184,-12.24365 c 2.28727,-46.22077 6.37764,-92.34293 8.21799,-138.58395 -85.93019,-35.29588 -171.53023,-71.89507 -258.48787,-104.39491 -0.49003,46.49346 1.95378,93.24916 3.28198,139.8059 67.50457,33.74847 139.3723,57.99583 207.75515,90.0437 11.08622,1.7276 30.91776,19.54148 39.23275,13.12926 z m -18.19631,-7.40026 c -72.3582,-34.26261 -147.75179,-61.48461 -220.29059,-95.26229 -12.91068,-15.59368 -4.04013,-39.49897 17.07331,-20.68653 72.46911,31.03863 145.81926,60.46001 217.28274,93.56579 -0.35345,10.81456 5.327,36.37662 -14.06546,22.38303 z m -76.7118,-45.93469 c -14.50194,-33.16881 -15.22106,18.6836 0,0 z m -7.02972,-0.28637 c -1.2286,-20.62095 5.59599,7.6279 0,0 z m -7.98916,-4.89411 c -1.51926,-13.15989 -5.11314,-1.31741 -9.33073,-10.82698 -3.35971,2.5315 4.58156,18.71902 9.33073,10.82698 z m -14.72643,-5.42327 c -6.41252,-9.74195 -4.46871,9.08835 0,0 z m -10.61655,-5.56608 c 1.3749,-22.39952 -10.83293,11.0155 0,0 z m -8.23858,-1.61674 c -3.53025,-22.34347 -20.00836,-1.85293 -0.95697,1.1872 l 0.95697,-1.1872 0,0 z m 18.10057,-0.21542 c -3.1306,-6.83373 -4.83151,2.60017 0,0 z m 107.21167,30.08778 c -51.737,-24.21652 -105.22298,-44.74271 -156.91579,-68.93548 56.44393,20.89767 110.57116,48.01349 166.9734,69.19252 5.66565,-27.62222 7.97608,-56.05319 -27.65117,-58.68431 -67.47691,-28.45272 -135.0472,-57.2467 -202.89299,-84.46823 -7.5496,28.37208 -0.46995,56.74433 33.28863,60.91351 12.28268,6.01079 -28.86033,-9.56342 -37.32997,-14.56284 -0.50868,-23.87974 -12.44931,-69.86735 24.3891,-41.28277 72.4658,29.41484 144.50716,59.88549 216.65513,90.04398 -1.42544,10.76204 8.87448,70.12748 -16.51634,47.78362 z M 389.12488,555.6916 c -3.86378,-4.18704 12.76911,-14.7084 3.37823,0.42264 l -3.37823,-0.42264 0,0 z m -6.40258,-4.90578 c -4.19239,-18.21429 9.51153,1.39976 0,0 z m -16.2037,-6.9318 c -11.58882,-15.31755 21.36535,-1.52056 1.42173,2.24442 l -1.42173,-2.24442 0,0 z m -51.77338,-2.57008 c -3.0316,-22.65212 14.28653,-4.02405 0,0 z m 109.50073,-1.682 c -79.38968,-33.76227 -159.5151,-65.86579 -238.76485,-99.90335 -0.46986,-6.84519 -13.86938,-49.86108 4.68238,-40.58313 80.68293,31.72245 161.37032,63.70195 240.66315,98.71948 -1.96416,11.719 2.80523,36.99623 -6.58068,41.767 z m -4.62119,-27.40822 c -2.26583,-12.48926 -24.49874,-8.07195 -6.46967,1.39397 2.96884,-3.38363 6.6563,11.37023 6.46967,-1.39397 z m -29.74991,2.7239 c 11.4713,-25.55026 -44.11259,-23.19182 -12.84445,-0.0876 3.8906,1.7036 9.1075,3.01825 12.84445,0.0876 z m -13.29362,-3.30708 c -12.17461,-33.75607 24.92462,5.7918 0,0 z m 22.54808,-6.27407 c 3.26255,-27.33382 -10.58557,15.53671 0,0 z m -34.70924,2.69548 c -3.34466,-9.05955 1.59063,-28.19068 -14.45608,-19.85071 -3.75037,27.62987 4.51519,4.03988 14.45608,19.85071 z m -8.87585,-13.71156 c -3.6137,-12.37243 9.03719,1.75982 0,0 z m -27.23414,-4.62718 c 1.93037,-8.45186 31.01399,-1.76125 11.52792,-19.86966 -21.15605,-26.30243 -29.97895,23.89113 -12.09771,24.28148 l 0.56979,-4.41182 0,0 z m 1.35546,-9.93707 c -7.01527,-22.35101 17.9896,3.03721 0,0 z m -26.56987,-1.62053 c 6.46068,-15.45821 -22.17592,-25.8019 -11.67021,-0.15078 5.78595,-9.17 14.9075,14.72259 11.67021,0.15078 z m -7.90889,-10.0612 c 0.28385,-12.26529 7.7346,6.09228 0,0 z m -10.50086,5.9401 c -7.62599,-6.6693 -2.91835,-10.86923 -2.50541,-15.78166 -8.34785,-19.52844 -15.48602,21.92527 2.50541,15.78166 z m -17.56973,-13.34814 c 8.52192,-19.7271 -8.78021,9.24111 -8.80455,-14.52636 -8.21856,14.95139 -17.64828,-19.39467 -13.79263,4.00517 2.36374,23.33903 14.52185,-7.11415 18.02455,16.51819 l 2.03253,-1.30324 2.5401,-4.69376 0,0 z m -29.22896,-7.67741 c 8.96222,-11.71474 -16.12627,-26.94956 -3.30522,-6.1629 -17.66493,16.41386 -1.71971,-33.56855 -17.97461,-6.77542 1.01253,8.02377 13.64942,18.58732 21.27983,12.93832 z m -27.9314,-18.93941 c -7.09894,-18.588 23.18343,-7.41288 -4.2923,-18.83596 -17.97205,-7.50166 -13.29918,-3.94554 -5.36123,6.81272 -5.22057,11.0928 10.46964,43.79038 9.65353,12.02324 z m 140.9672,103.96359 c -1.86608,-19.85723 11.53707,-6.31362 0,0 z m -56.47275,-4.75936 c 3.92635,-3.735 -12.70587,-20.19447 -2.70683,-14.79655 -4.20773,13.19019 18.80801,-2.71949 5.17488,15.54618 l -2.46811,-0.74963 6e-5,0 z m 12.57214,-1.35344 c 1.67216,-17.59984 4.57721,6.66498 0,0 z m 31.26934,1.35545 c 3.7328,-5.3057 4.97456,2.94983 0,0 z m -7.36139,-4.58888 c -2.03155,-22.5023 12.35492,1.19941 0,0 z m 8.58444,0.27783 c -5.63802,-8.59093 11.81835,0.91133 0,0 z m -25.28187,-6.02888 c -16.81894,-10.69043 22.90816,8.84076 -2.89891,-9.87484 -11.34821,-21.47644 27.10872,21.74849 2.89891,9.87484 z m -70.52755,-2.49534 c -22.21508,-10.92451 22.76245,8.63247 0,0 z m 44.82583,-7.89814 c 3.7979,-18.85279 13.34882,1.10389 0,0 z m -6.39569,-4.83907 c -1.8974,-17.97608 7.90088,-0.85187 0,0 z m -12.57063,-4.285 c -3.88415,-18.38231 11.01132,-7.68038 0,0 z m -11.68189,-3.91974 c 5.06588,-3.33578 3.43154,3.42176 0,0 z m -6.29665,-5.28098 c -2.23042,-16.59199 8.79428,-1.41508 0,0 z m -9.70809,-2.59282 c -4.1701,-13.827 6.53398,-4.44499 0,0 z m -10.23922,-4.49446 c 0.0674,-11.25678 -11.76482,4.83243 -14.09659,-9.8666 -7.00006,9.76235 -0.79118,-27.04123 4.72858,0.30965 5.93041,1.0791 14.89783,-9.37411 10.86249,10.19676 l -0.70089,0.50301 -0.79359,-1.14282 0,0 z m 252.50813,139.76998 c 1.12591,-24.20664 3.72019,-54.04173 0.62972,-78.24738 -1.85697,24.57613 -15.66995,59.67894 -4.17885,79.99604 l 3.54913,-1.74866 0,0 z m 18.829,-24.09042 c 1.09729,-10.8049 -6.31205,8.79496 0,0 z M 155.40207,544.79025 c -0.30181,-59.07963 1.66538,-118.832 -3.77744,-177.63568 -6.08295,22.817 0.0538,55.97431 -1.13887,82.73535 3.51533,29.22121 -5.92334,75.66885 4.91631,94.90033 z m 331.94188,-2.75676 c -0.2825,-14.57613 -7.13345,10.54731 0,0 l 0,0 z m 1.02437,-13.0397 c 3.67028,-15.95352 -8.84703,14.0666 0,0 z m 3.34705,-95.07718 c -5.07359,-19.86048 -8.28257,6.27729 0,0 l 0,0 z m 22.51404,-3.39066 c 5.301,-13.65493 -4.75793,-7.22076 -1.35464,1.52227 l 1.35464,-1.52227 z m 17.22822,-4.7789 c -2.46662,-6.09049 -2.43729,6.30967 0,0 z M 518.6015,408.33692 c 4.81358,-18.84674 -14.79435,9.64651 0,0 z m 10.08341,-36.34926 c -2.86013,-3.30253 -1.77109,4.58699 0,0 z m 1.86702,-4.97474 c 1.89742,-6.91561 -6.68643,4.66555 0,-5.6e-4 l 0,5.6e-4 z m -378.1989,-6.05099 c -4.07553,-8.06888 -1.88448,6.97766 0,0 z m 24.19698,-7.52727 c 0.39174,-12.29117 -5.09511,7.67864 0,0 z m 9.74005,-17.87161 c 12.34312,-7.08246 33.08248,-36.93883 17.92811,-39.18227 8.67115,15.84047 -44.2732,37.2049 -17.92811,39.18227 z m -10.30105,-0.46188 c 4.38693,-23.1921 -12.13441,-10.47544 -1.86863,1.379 l 1.86863,-1.379 0,0 z m 91.13638,-2.20121 c -5.91202,-6.44065 -5.04899,5.20171 0,0 z m -101.69863,-3.58147 c 3.55863,-15.93357 -7.65412,4.09814 0,0 z m -15.13585,-3.46848 c -4.7951,0.0394 2.9806,6.49618 0,0 z m 134.7416,-0.41628 c -8.49282,-3.8603 -1.48593,6.01238 0,0 z m -16.05864,-1.69015 c -4.61808,-6.75739 -3.04783,7.04432 0,0 z m -134.0146,-2.62335 c -3.96856,-9.67735 -4.60148,7.64907 0,0 z m 241.50199,-3.66496 c -6.98626,-12.54197 -0.4261,8.31025 0,0 z M 152.05769,305.28536 c -6.47588,-12.71932 21.91298,-19.21203 -1.86483,-14.5948 -6.73178,5.60057 3.37648,42.76498 1.86483,14.5948 l 0,0 z m 31.88623,7.99017 c -2.8527,-4.92001 -1.65298,6.1768 0,0 z m 118.30254,-0.75038 c -5.06266,-6.9054 -4.80672,5.32733 0,0 z m 83.18147,-0.48069 c -10.49472,-9.0069 -26.86911,-25.05692 -10.62228,-4.40437 1.53267,2.74385 7.95172,5.84467 10.62228,4.40437 z m -201.03024,-6.7673 c 25.51321,-23.19525 -36.87441,-28.75311 -10.80709,0.97576 3.56517,-1.41788 8.24798,3.60515 10.80709,-0.97576 z m -22.52432,-35.41309 c 19.60954,-16.74374 -1.74648,-19.87238 -6.5732,-0.2185 l 2.83884,1.30071 3.73436,-1.08221 z M 254.1492,177.7434 c 5.4e-4,-17.94641 -20.52229,6.1165 0,0 z m 272.63903,444.21643 c 8.04082,-7.38222 -4.9032,6.93458 0,0 z m 4.22105,-5.31297 c 6.77013,-6.90061 -5.6077,7.87855 0,0 z m 20.7816,-71.16899 c 8.00316,-23.13444 17.33955,-8.74378 0,0 z m 19.87113,-9.35378 c -11.91432,-2.61084 -0.88309,-31.0049 -5.69091,-32.73091 25.69808,-9.36883 26.89778,36.27756 5.69091,32.73091 z M 538.6763,515.39293 c -0.0672,-11.7256 8.40664,6.97784 0,0 z m 15.38717,-7.78253 c -0.42859,-5.0422 4.82575,3.56374 0,0 z m 49.48822,-25.19931 c 4.07068,-12.51741 7.34681,0.0981 0,0 z m 6.46622,-12.04095 c -6.20081,-12.11652 21.88117,-29.62543 10.41385,-6.61721 -3.64364,-0.45923 -5.48883,12.86716 -10.41385,6.61721 z m 12.5761,-23.30629 c 0.83575,-36.79096 29.62531,4.65254 0,0 z m -11.16866,-1.268 c -6.71686,-32.1474 17.88029,2.66611 0,0 z m 1.59633,-18.25663 c -20.11197,-23.86228 21.48526,-6.58811 6.46967,0.88093 l -6.46967,-0.88093 z M 578.28572,406.9349 c 4.7013,-23.68703 24.15404,-12.04804 1.58605,0.51611 l -1.58605,-0.51611 z m 17.38137,-21.27957 c 4.99795,-19.70573 9.33953,1.12202 0,0 z m -29.5916,-12.02574 c 2.38807,-20.42454 13.30893,-3.86753 0,0 z m -10.09799,-2.45456 c 3.51584,-15.98706 12.98843,2.59362 0,0 z m -53.86445,-37.96765 c -3.17102,-5.9992 10.99115,-0.1452 0,0 z M 72.316698,328.75215 c -7.021725,-7.3835 11.349264,5.51533 0,0 z m -1.439774,-4.72728 c -5.948192,-11.29761 -11.790997,-37.61863 8.28721,-20.45412 -5.047002,4.73148 -2.03858,19.57667 -8.28721,20.45412 z M 558.72522,272.59486 c -2.48192,-25.25012 13.57276,-16.48715 3.46084,2.07078 l -3.22645,3.61838 -0.23439,-5.68916 0,0 z M 106.30788,256.5491 c 3.87285,-8.07293 7.74711,4.13858 0,0 z m 455.10927,-9.66924 c -14.6407,-26.91791 -57.77596,-42.36376 -71.53335,-56.09403 30.6112,7.48508 66.66315,25.59619 73.5551,58.91412 0.38613,3.20017 -1.99605,-3.42748 -2.02175,-2.82009 z M 314.23667,218.88919 c -5.98983,-20.73969 8.50807,-8.32883 2.56749,3.86863 l -2.56749,-3.86863 0,0 z m 66.63482,0.75059 c -6.97137,-21.05048 12.25788,9.41659 0,0 z m -46.27668,-6.19097 c 3.01243,-8.09578 1.60012,4.72351 0,0 z m 62.82535,-14.87229 c -0.014,-14.67846 14.01046,9.39651 0,0 z m -227.33982,-4.49207 c 3.1926,-4.70335 4.05878,4.64043 0,0 z m 209.80216,-3.64106 c 9.42558,-0.0712 -0.86258,0.39178 0,0 z"
         id="path4144"
         inkscape:connector-curvature="0" />
      <path
         style="fill:#253696"
         d="m 463.3963,693.92521 c -26.49802,-12.65243 -55.55543,-16.59303 -82.12766,-31.93674 -67.67802,-31.5372 -136.77123,-60.25367 -203.92452,-92.75368 -21.55558,-11.8681 -39.33279,-23.62953 -34.10865,-51.69464 -2.80747,-52.8957 -0.23507,-106.06809 -4.30205,-158.85713 -17.82037,-1.08328 -21.2757,-38.57181 -8.40727,-37.61076 13.97594,-0.16159 3.32026,-37.08761 5.46718,-53.43606 10.63953,-18.27692 31.06412,-18.86006 43.08182,-37.31129 8.60248,-8.46977 26.31905,-27.77727 13.97421,-21.10475 22.92738,-14.30339 39.50454,-62.01862 71.59118,-42.62921 17.56191,6.18821 56.03711,12.44148 57.23417,25.05316 -21.85482,4.96351 -44.17324,-21.19676 -65.75878,-3.95629 -41.50687,-3.67831 37.82911,-14.49834 -0.24471,-18.28982 -27.41245,9.21395 -42.54167,37.70503 -64.37202,57.92717 -10.46864,12.98385 -58.46141,47.14212 -21.45545,41.78886 14.13895,5.20121 52.5278,26.44304 69.96384,26.95808 -3.67671,-8.83991 26.28913,-40.74445 13.34,-16.79408 9.3205,2.92483 -9.07839,10.58736 -0.80782,17.59793 -13.94903,1.59557 66.93308,29.4713 24.48728,25.71078 -32.83295,-16.55663 -14.35924,34.09493 -15.34654,50.67476 19.7332,22.74978 2.66807,-30.10969 9.80115,-37.63074 9.52353,4.15472 4.02324,44.75332 11.24304,16.32299 7.65362,-21.928 5.10042,38.93406 23.91184,14.79315 5.72929,15.25348 4.24728,9.36138 12.87532,-0.50035 18.68317,22.62442 6.63659,-14.27517 21.87462,-0.0511 -1.65743,15.0021 4.50069,21.7534 16.69884,8.54766 8.06724,16.15764 9.23293,18.58745 10.15103,-3.29475 -6.97562,-28.45724 -46.82753,-18.25168 -65.89736,-38.14038 -36.12485,-13.63098 17.1909,2.26976 23.17948,-0.27677 -12.54026,-8.40687 2.35207,-32.31774 -12.64188,-33.49973 22.77735,5.84371 -20.24164,-30.6328 4.38868,-19.06081 8.21572,27.83685 8.78485,-15.06567 18.09008,0.74955 4.80289,2.21829 12.24982,-36.45724 18.18162,-6.88467 -7.52789,28.03331 19.50465,50.00016 21.74343,77.37588 22.48545,14.08708 41.43834,25.79609 73.12077,24.42135 15.31565,-3.21915 43.37799,-23.96862 47.35268,-5.00171 -4.33232,9.44308 31.60171,-8.98967 32.89893,3.64106 5.41064,-15.24383 22.19616,-18.93812 5.65275,-2.27566 -10.72638,11.97324 -4.80733,24.89595 -21.65524,30.62671 11.19286,12.25375 -23.94492,44.72065 2.47777,27.60213 -3.23766,-11.44412 13.94915,-32.20487 6.99158,-10.85169 1.44217,32.84404 23.08274,-13.08768 34.27452,-21.43458 8.27494,-11.85004 42.31375,-53.27651 27.27731,-17.17319 -7.6594,27.54698 -48.99994,50.58346 -16.77532,76.90116 -11.18788,14.52148 -15.22311,-8.80217 -26.62662,-1.37266 -11.17124,-4.37291 -25.91415,36.14128 2.38707,33.78603 32.19117,26.57717 -32.05954,-16.57105 -22.68877,12.19782 5.40725,23.6093 -27.84654,-6.24787 -18.01662,21.41272 11.13201,26.57746 42.22115,30.57881 66.55971,42.48077 55.23159,19.86018 112.02509,35.57455 166.0481,58.65749 4.56421,15.74624 -63.44433,-14.94506 -26.28168,1.56961 22.27102,-4.01904 40.59214,26.40972 22.2965,35.60569 -72.57242,-16.95558 -146.9079,-31.93872 -213.90407,-65.6127 -18.0501,-10.97104 -27.39957,-2.23943 -27.73213,14.50836 -3.53682,-31.59229 -0.32721,-63.48914 3.15631,-94.92544 15.87708,-7.67005 -16.21377,-15.64557 -4.99885,-5.34276 -24.92323,13.16442 -9.16317,57.1572 -18.7721,82.35938 -8.43086,23.90519 24.84949,45.69016 -4.73952,49.29421 -14.24601,17.03099 23.9651,34.59679 -0.54726,37.34779 9.87567,13.44985 38.00724,-15.39923 17.60842,10.05127 -4.55332,4.15847 -11.36845,5.80082 -17.24834,3.74059 z m -25.04166,-27.18533 c 1.16593,-14.107 22.70847,-1.85157 16.07693,-25.35197 2.262,-26.26666 -17.70112,-4.03756 -12.56353,13.1393 -67.64519,-28.0934 -135.25866,-57.45794 -202.8498,-85.66134 -20.81798,-16.94873 -62.86802,-15.23526 -71.64565,-39.85725 -3.17912,-27.15456 -10.99527,23.52329 6.60782,15.75492 13.91902,27.28606 51.57465,31.71702 76.72162,47.21297 62.74748,23.41629 123.20461,53.23415 185.54288,77.63681 l 1.42246,-0.8443 0.68727,-2.02914 0,0 z m -10.7002,-33.00459 c 2.28727,-46.22077 6.37764,-92.34293 8.21799,-138.58395 -85.93019,-35.29588 -171.53023,-71.89507 -258.48787,-104.39491 -0.49003,46.49346 1.95378,93.24916 3.28198,139.8059 67.50457,33.74847 139.3723,57.99583 207.75515,90.0437 11.08622,1.7276 30.91776,19.54148 39.23275,13.12926 z m -18.19631,-7.40026 c -72.3582,-34.26261 -147.75179,-61.48461 -220.29058,-95.26229 -12.91069,-15.59368 -4.04014,-39.49897 17.0733,-20.68653 72.46911,31.03863 145.81926,60.46001 217.28274,93.56579 -0.35345,10.81456 5.327,36.37662 -14.06546,22.38303 z m -76.7118,-45.93469 c -14.50194,-33.16881 -15.22106,18.6836 0,0 z m -7.02972,-0.28637 c -1.2286,-20.62095 5.59599,7.6279 0,0 z m -7.98916,-4.89411 c -1.51926,-13.15989 -5.11314,-1.31741 -9.33073,-10.82698 -3.35971,2.5315 4.58156,18.71902 9.33073,10.82698 z m -14.72643,-5.42327 c -6.41252,-9.74195 -4.46871,9.08835 0,0 z m -10.61655,-5.56608 c 1.3749,-22.39952 -10.83293,11.0155 0,0 z m -8.23858,-1.61674 c -3.53025,-22.34347 -20.00836,-1.85293 -0.95697,1.1872 l 0.95697,-1.1872 0,0 z m 18.10057,-0.21542 c -3.1306,-6.83373 -4.83151,2.60017 0,0 z m 107.21167,30.08778 c -51.737,-24.21652 -105.22298,-44.74271 -156.91579,-68.93548 56.44393,20.89767 110.57116,48.01349 166.9734,69.19252 5.66565,-27.62222 7.97608,-56.05319 -27.65117,-58.68431 -67.47691,-28.45272 -135.0472,-57.2467 -202.89299,-84.46823 -7.5496,28.37208 -0.46995,56.74433 33.28863,60.91351 12.28268,6.01079 -28.86033,-9.56342 -37.32997,-14.56284 -0.50868,-23.87974 -12.44931,-69.86735 24.3891,-41.28277 72.4658,29.41484 144.50716,59.88549 216.65513,90.04398 -1.42544,10.76204 8.87448,70.12748 -16.51634,47.78362 z M 389.12488,555.6916 c -3.86378,-4.18704 12.76911,-14.7084 3.37823,0.42264 l -3.37823,-0.42264 0,0 z m -6.40258,-4.90578 c -4.19239,-18.21429 9.51153,1.39976 0,0 z m -16.2037,-6.9318 c -11.58882,-15.31755 21.36535,-1.52056 1.42173,2.24442 l -1.42173,-2.24442 0,0 z m -51.77338,-2.57008 c -3.0316,-22.65212 14.28653,-4.02405 0,0 z m 109.50073,-1.682 c -79.38968,-33.76227 -159.5151,-65.86579 -238.76485,-99.90335 -0.46986,-6.84519 -13.86938,-49.86108 4.68238,-40.58313 80.68293,31.72245 161.37032,63.70195 240.66315,98.71948 -1.96416,11.719 2.80523,36.99623 -6.58068,41.767 z m -4.62119,-27.40822 c -2.26583,-12.48926 -24.49874,-8.07195 -6.46967,1.39397 2.96884,-3.38363 6.6563,11.37023 6.46967,-1.39397 z m -29.74991,2.7239 c 11.4713,-25.55026 -44.11259,-23.19182 -12.84445,-0.0876 3.8906,1.7036 9.1075,3.01825 12.84445,0.0876 z m -13.29362,-3.30708 c -12.17461,-33.75607 24.92462,5.7918 0,0 z m 22.54808,-6.27407 c 3.26255,-27.33382 -10.58557,15.53671 0,0 z m -34.70924,2.69548 c -3.34466,-9.05955 1.59063,-28.19068 -14.45608,-19.85071 -3.75037,27.62987 4.51519,4.03988 14.45608,19.85071 z m -8.87585,-13.71156 c -3.6137,-12.37243 9.03719,1.75982 0,0 z m -27.23414,-4.62718 c 1.93037,-8.45186 31.01399,-1.76125 11.52792,-19.86966 -21.15605,-26.30243 -29.97895,23.89113 -12.09771,24.28148 l 0.56979,-4.41182 0,0 z m 1.35546,-9.93707 c -7.01527,-22.35101 17.9896,3.03721 0,0 z m -26.56987,-1.62053 c 6.46068,-15.45821 -22.17592,-25.8019 -11.67021,-0.15078 5.78595,-9.17 14.9075,14.72259 11.67021,0.15078 z m -7.90889,-10.0612 c 0.28385,-12.26529 7.7346,6.09228 0,0 z m -10.50086,5.9401 c -7.62599,-6.6693 -2.91835,-10.86923 -2.50541,-15.78166 -8.34785,-19.52844 -15.48602,21.92527 2.50541,15.78166 z m -17.56973,-13.34814 c 8.52192,-19.7271 -8.78021,9.24111 -8.80455,-14.52636 -8.21856,14.95139 -17.64828,-19.39467 -13.79263,4.00517 2.36374,23.33903 14.52185,-7.11415 18.02455,16.51819 l 2.03253,-1.30324 2.5401,-4.69376 0,0 z m -29.22896,-7.67741 c 8.96222,-11.71474 -16.12627,-26.94956 -3.30522,-6.1629 -17.66493,16.41386 -1.71971,-33.56855 -17.97461,-6.77542 1.01253,8.02377 13.64942,18.58732 21.27983,12.93832 z m -27.9314,-18.93941 c -7.09894,-18.588 23.18343,-7.41288 -4.2923,-18.83596 -17.97205,-7.50166 -13.29918,-3.94554 -5.36123,6.81272 -5.22057,11.0928 10.46964,43.79038 9.65353,12.02324 z m 140.9672,103.96359 c -1.86608,-19.85723 11.53707,-6.31362 0,0 z m -56.47275,-4.75936 c 3.92635,-3.735 -12.70587,-20.19447 -2.70683,-14.79655 -4.20773,13.19019 18.80801,-2.71949 5.17488,15.54618 l -2.46811,-0.74963 6e-5,0 z m 12.57214,-1.35344 c 1.67216,-17.59984 4.57721,6.66498 0,0 z m 31.26934,1.35545 c 3.7328,-5.3057 4.97456,2.94983 0,0 z m -7.36139,-4.58888 c -2.03155,-22.5023 12.35492,1.19941 0,0 z m 8.58444,0.27783 c -5.63802,-8.59093 11.81835,0.91133 0,0 z m -25.28187,-6.02888 c -16.81894,-10.69043 22.90816,8.84076 -2.89891,-9.87484 -11.34821,-21.47644 27.10872,21.74849 2.89891,9.87484 z m -70.52755,-2.49534 c -22.21508,-10.92451 22.76245,8.63247 0,0 z m 44.82583,-7.89814 c 3.7979,-18.85279 13.34882,1.10389 0,0 z m -6.39569,-4.83907 c -1.8974,-17.97608 7.90088,-0.85187 0,0 z m -12.57063,-4.285 c -3.88415,-18.38231 11.01132,-7.68038 0,0 z m -11.68189,-3.91974 c 5.06588,-3.33578 3.43154,3.42176 0,0 z m -6.29665,-5.28098 c -2.23042,-16.59199 8.79428,-1.41508 0,0 z m -9.70809,-2.59282 c -4.1701,-13.827 6.53398,-4.44499 0,0 z m -10.23922,-4.49446 c 0.0674,-11.25678 -11.76482,4.83243 -14.09659,-9.8666 -7.00006,9.76235 -0.79118,-27.04123 4.72858,0.30965 5.93041,1.0791 14.89783,-9.37411 10.86249,10.19676 l -0.70089,0.50301 -0.79359,-1.14282 0,0 z m 220.33406,136.67324 c -2.17174,-3.13332 -2.65087,1.73833 0,0 z M 156.76094,546.72307 c 2.83861,-30.53332 -0.63663,-62.12802 0.65224,-93.10833 -0.94879,-34.39102 0.0232,-69.359 -6.05237,-103.18214 -6.49496,20.41774 -1.71079,52.68165 -2.18349,77.59334 1.78242,38.30879 -0.0728,77.36361 -0.0585,115.1977 0.72175,2.3158 4.96972,8.60542 7.64215,3.49943 z m 340.65814,-77.87948 c 0.25595,-7.86974 -14.69707,1.09022 0,0 z m 15.55378,-7.59618 c -3.60927,-3.32713 -3.60922,3.32714 0,0 z m -22.93032,-9.77475 c -5.26529,-4.92374 1.02155,14.02914 0,0 z m 22.93032,-3.47782 c -3.05956,-7.56703 -2.3727,9.59696 0,0 z m -22.99652,-3.35977 c 11.30491,-14.05744 -13.0151,-30.30436 -2.33959,-7.83454 0.59533,0.39843 -0.006,15.20666 2.33959,7.83454 z m -43.57787,-14.62083 c -17.2048,-21.5094 -17.37332,-2.4889 0,0 z m -16.51115,-5.44707 c -8.78858,-2.2839 4.36231,4.9348 0,0 z m 26.54094,0.92179 c -8.34643,-4.00959 -2.08649,-1.41364 0,0 z m -50.90914,-1.28069 c -10.42321,-3.55964 5.88441,5.54836 0,0 z m 12.74702,-0.32595 c 14.79369,0.92502 -8.31725,-20.77937 -2.75884,-19.54989 -12.53178,-0.99365 -22.7401,-2.58129 -23.7264,-16.1008 -11.00031,22.78413 16.74743,24.44459 25.48451,36.55133 l 1.00073,-0.9006 0,-4e-5 z m 57.13493,-6.97104 c 6.66991,-30.74635 -10.00217,24.56938 0,0 z m -35.44306,-0.72201 c -2.78536,-7.62355 -0.91833,7.46776 0,0 z M 300.39798,398.09541 c -8.72436,-18.92112 -7.09358,4.29304 0,0 z m 107.6738,-8.75898 c -1.12288,-3.33218 -2.27655,3.24453 0,0 z m 110.51913,-9.32766 c 5.632,-14.13873 -15.85884,9.24252 0,0 z m -187.69306,0.36609 c -5.0546,-9.95241 -5.44407,4.10465 0,0 z m 79.10906,-2.09971 c -7.89385,-12.8316 -24.29245,5.1433 0,0 z m -72.63094,-8.49941 c -8.99458,-7.34396 2.7248,6.67184 0,0 z m -139.17495,-4.49697 c 8.97306,-7.28234 23.31568,6.97346 21.62875,-4.98515 -10.31898,3.13119 11.41451,-38.27084 -13.9848,-30.6705 -0.51568,-14.42662 24.59751,-35.28114 -7.04046,-37.98913 -18.549,-19.42901 -43.98059,-3.32578 -25.09069,16.6888 13.07287,3.96603 -19.749,25.51282 5.11976,30.09782 9.41273,10.4538 40.18626,-6.4764 23.0992,11.15405 -10.89142,-4.70497 -13.31696,23.49407 -3.73176,15.70411 z m 1.65547,-33.44004 c 7.80135,-5.77258 2.85451,4.13779 0,0 z m -16.83681,-10.30005 c 7.61447,-13.1669 30.31007,-30.94724 10.6891,-8.2438 -0.0824,2.67537 -8.73964,12.6435 -10.6891,8.2438 z m 106.03713,40.85009 c -3.40208,-1.03426 -1.69831,1.58617 0,0 z m -102.62819,-5.61458 c 5.6872,-9.76739 -13.64456,-2.75277 0,0 z m -8.36357,-1.57476 c -1.29563,-21.12537 -14.43179,6.18441 0,0 z m -33.46077,-8.55067 c -2.58129,-11.14732 -5.48559,2.07396 0,0 z m 6.99129,-2.82561 c -1.12286,-3.33217 -2.27656,3.2445 0,0 z m 0.50404,-16.16495 c 0.32921,-11.46588 1.38737,-51.60779 10.47823,-21.15594 12.73731,-21.34295 -15.41523,-31.74166 -15.48046,-8.19239 -0.80418,8.92985 7.40315,26.73149 -6.59268,21.48791 5.84289,-0.52666 10.11035,27.50564 11.59491,7.86042 z m 14.28774,4.78192 c 3.1262,-34.12344 -13.83533,-4.50934 0,0 z m 59.20583,-6.77296 c 14.28098,-21.13457 -6.32708,-15.90533 -4.20652,3.59174 l 4.20652,-3.59174 0,0 z m 243.18616,337.46249 c -1.61756,-6.8688 6.45217,0.37432 0,0 z M 577.43963,517.97758 c -21.08366,-1.69804 8.98334,-25.54023 4.48455,-1.82064 l -2.16094,3.34747 -2.32361,-1.52683 0,0 z m -85.1081,-6.36214 c -2.82698,-4.12976 4.04752,0.7844 0,0 z m 81.25311,-62.67134 c -8.89497,-13.82266 -10.17997,-45.94901 16.52157,-34.9527 -16.12942,3.47476 -3.21022,37.19492 -16.52157,34.9527 z m 38.35128,-4.86376 c -2.76447,-22.82988 13.23332,0.9707 0,0 l 0,0 z m 18.1806,-6.15851 c -9.24871,-9.05093 12.39947,1.6755 0,0 l 0,0 z m -16.33978,-11.20758 c -13.13993,-23.00548 23.32401,5.52659 0,0 z m -61.63137,-36.2219 c 14.96038,-20.03701 1.43206,3.7984 -1.43767,2.28919 l 0.98057,-1.56135 0.4571,-0.72784 0,0 z m 113.67364,-1.57883 c 3.23261,-15.68637 8.92174,3.04612 0,0 z m -66.89197,-25.93239 c -25.46232,-4.58409 -0.34821,-20.15575 11.59442,-3.27799 12.089,6.86551 -9.02081,4.9467 -11.59442,3.27799 z m -70.23069,0.18516 c 9.04887,-10.40139 10.97669,-1.41622 0,0 z m -192.66817,-4.41942 c -19.84957,-18.27052 22.32261,10.90352 0,0 l 0,0 z m 241.64138,-4.45567 c 2.23429,-6.32997 2.23429,6.32997 0,0 z m -19.77288,-2.65473 c 5.15166,-5.115 -0.4978,4.53454 0,0 z m -237.62757,-1.44146 c 1.12286,-3.33217 2.27656,3.2445 0,0 z m 231.17752,-2.0481 c 17.06991,-12.96699 6.235,-52.96064 29.30804,-38.63968 -0.11999,11.78367 -25.38628,40.47887 -29.30804,38.63968 z m -238.51702,-1.16678 c -3.8735,-5.04252 8.31226,5.30149 0,0 z m -25.58353,-4.27895 c -26.89661,-14.50889 5.88444,-14.29543 4.66289,0.7846 l -4.66289,-0.7846 0,0 z m 158.61948,-12.55263 c -25.96373,-2.29571 -62.48576,-17.57286 -71.95703,-35.28827 13.64317,8.917 53.17852,24.11046 57.63133,14.67477 -15.5649,-10.06168 -10.75853,-25.76932 -26.622,-39.64943 0.70408,-28.09716 38.19783,25.32952 59.89459,12.08376 15.84318,-2.32941 45.67507,-9.01102 26.96755,8.99137 -17.82967,2.73047 -19.94976,24.3018 -32.11869,26.3461 25.76746,5.51301 55.29984,-3.15064 77.64317,-7.06681 -26.83803,14.1216 -57.16496,24.2256 -87.96131,20.25914 l -3.47761,-0.35063 0,0 z m 6.23861,-14.23622 c -5.09071,-1.48152 -0.92659,1.59423 0,0 z m -11.2693,-1.7384 c -16.21983,-2.61891 10.73212,4.60803 0,0 z m -6.52229,-16.26547 c -2.17174,-3.13332 -2.65087,1.73833 0,0 z m -364.805512,6.46038 c -12.769524,-14.23555 21.057104,6.51102 0,0 z m 511.759442,-0.17442 c -11.13824,-2.9052 -23.79152,-17.03634 -7.166,-23.05088 15.26192,4.62658 38.43964,17.24804 7.166,23.05088 z M 360.06377,284.45334 c -4.54195,-10.0115 6.43741,7.26103 0,0 z m -127.13521,-9.27168 c 17.60917,-10.39149 15.5866,3.31336 0,0 z m 327.18046,-4.96045 c 3.19043,-25.9935 5.23273,9.25724 0,0 z m -316.61909,-2.96774 c -12.14844,-20.37126 4.27598,-31.37122 15.94145,-27.01635 3.06207,25.40556 -1.14745,1.60359 -9.87421,4.76281 11.31112,5.8749 6.50011,25.22291 -6.06724,22.25354 z m -63.14886,-4.35128 c -10.68525,-19.01728 13.16736,4.68034 0,0 z m 176.05001,-9.98344 c -0.77801,-5.33986 -2.80832,-2.32635 0,-3.2e-4 l 0,3.2e-4 z m -215.7577,-11.07564 c -6.31385,-6.40216 16.71644,5.05531 0,0 z m 10.03795,0.41868 c 3.66442,-4.75758 4.96881,5.52926 0,0 z m 406.00116,-1.89187 c -11.49887,-22.72722 -45.84171,-33.73875 -58.33481,-46.27394 20.90822,6.26486 61.71447,27.59686 58.33481,46.27394 z m -315.92341,-1.59546 c 1.23635,-25.62956 22.90754,-3.54614 0,0 z m 111.77564,-2.75219 c -17.68807,-15.75596 32.67108,-8.86807 6.91908,1.25533 l -6.91908,-1.25533 z m 28.84239,-17.43671 c -0.4978,-4.53454 5.15166,5.115 0,0 z"
         id="path4142"
         inkscape:connector-curvature="0" />
      <path
         style="fill:#242c63"
         d="m 462.60185,693.57998 c -22.77187,-14.96447 -57.48615,-10.4002 -72.76697,-37.42096 15.75544,-9.02019 49.89583,29.49152 55.74415,18.09063 -19.03095,-13.30512 11.93639,-8.32196 8.12708,-9.33026 8.27247,-12.78062 -0.67332,-68.36593 -11.6461,-35.067 6.484,45.26404 -41.74346,0.83623 -64.62133,-2.87391 -62.93539,-26.8637 -126.23464,-52.7103 -188.59164,-80.81317 -19.58358,-2.18647 -22.55347,-17.61106 -24.81506,-33.94298 -16.84249,35.19342 23.15373,45.51451 42.94842,64.76087 -2.02774,14.60342 -35.8608,-17.58139 -49.9956,-20.91951 -14.46986,-6.03991 -14.99497,-18.79863 -1.24737,-6.84314 8.11054,-31.92063 -0.34927,-68.2132 2.03761,-101.8565 -1.28109,-35.42187 -0.77088,-71.56015 -5.83239,-106.36569 -17.16012,7.41174 13.9803,-22.65928 5.08517,-36.14006 2.71843,-18.18994 2.89215,31.71329 7.10244,40.67323 4.17292,26.95295 45.87221,25.91519 66.34567,27.92841 3.92193,12.93174 34.1263,18.40767 12.61926,3.47798 -22.3397,-16.3471 -24.83592,-56.89226 0.30237,-66.86086 15.58665,0.41365 -27.81601,-12.37144 -35.43436,-17.2746 -23.97921,-15.45277 -42.73355,-3.99696 -61.85153,-18.71315 -24.29711,-6.17866 13.0348,-25.45278 8.95077,-2.94147 24.29068,3.32236 50.05748,13.98809 76.30755,24.00235 19.61553,6.11771 44.49552,13.24284 57.78261,27.21714 -19.11977,-5.77561 -42.20454,-12.15833 -30.65551,16.62676 -4.05176,16.76968 -4.30033,67.66552 19.0456,50.46191 -5.40373,-12.64711 11.19404,-29.29141 9.9094,-17.87306 -25.8139,10.84058 29.97284,49.23186 28.88901,25.14559 -16.7886,-6.76696 5.37186,-31.96787 11.46056,-12.85366 9.02202,-3.87566 19.54443,4.13896 27.13775,3.68354 -5.4545,19.80298 12.87119,33.84906 25.92405,33.3368 6.658,5.07249 21.7863,17.43004 45.29401,22.69219 10.92897,-2.79805 5.45761,-4.80298 19.78819,4.91633 11.20678,12.78483 22.4033,-2.17264 31.1019,-4.41227 7.95389,-43.35393 2.97663,38.30751 22.3966,24.20631 -4.40831,-2.27837 -15.22342,-23.35819 -2.33944,-30.8242 2.98563,11.11891 15.64797,40.4353 18.54026,14.17197 26.24669,-26.91775 45.16338,-60.30344 71.49797,-86.88169 -6.04177,30.36674 -34.79179,53.6333 -51.81914,79.76568 -11.52615,14.13718 -28.05034,31.6481 -7.43366,44.26246 -29.07682,-3.11091 1.4818,3.98876 -10.95569,23.6822 -26.61729,-12.40545 -14.43515,26.62643 1.71584,31.32078 1.9175,18.71981 38.11836,8.57139 50.79583,23.20206 54.93369,19.71285 111.39374,35.38002 165.11288,58.33225 4.56421,15.74624 -63.44433,-14.94506 -26.28168,1.56961 22.27102,-4.01904 40.59214,26.40972 22.2965,35.60569 -71.81593,-17.29284 -146.23036,-30.76242 -212.05559,-65.59619 -13.07509,-10.94771 -29.29466,2.62027 -29.58378,-4.89527 -3.00741,-22.25551 3.76646,-49.43398 5.55357,-66.13677 16.14879,-20.40168 -10.9903,-29.36162 -16.75839,-12.74372 -8.00581,26.54796 -6.96523,59.47675 -11.30789,88.41775 -2.05095,18.2642 9.91082,26.72313 -4.32427,35.43425 -6.81156,23.83671 -4.90834,63.0323 26.84512,41.71262 -4.37668,10.02041 -14.59151,19.75586 -26.34075,14.88273 z m -34.94741,-59.84469 c 2.28727,-46.22077 6.37764,-92.34293 8.21799,-138.58395 -85.93019,-35.29588 -171.53023,-71.89507 -258.48787,-104.39491 -0.49003,46.49346 1.95378,93.24916 3.28198,139.8059 67.50457,33.74847 139.3723,57.99583 207.75515,90.0437 11.08622,1.7276 30.91776,19.54148 39.23275,13.12926 z m -18.19631,-7.40026 c -72.3582,-34.26261 -147.75179,-61.48461 -220.29058,-95.26229 -12.91069,-15.59368 -4.04014,-39.49897 17.0733,-20.68653 72.46911,31.03863 145.81926,60.46001 217.28274,93.56579 -0.35345,10.81456 5.327,36.37662 -14.06546,22.38303 z m -76.7118,-45.93469 c -14.50194,-33.16881 -15.22106,18.6836 0,0 z m -7.02972,-0.28637 c -1.2286,-20.62095 5.59599,7.6279 0,0 z m -7.98916,-4.89411 c -1.51926,-13.15989 -5.11314,-1.31741 -9.33073,-10.82698 -3.35971,2.5315 4.58156,18.71902 9.33073,10.82698 z m -14.72643,-5.42327 c -6.41252,-9.74195 -4.46871,9.08835 0,0 z m -10.61655,-5.56608 c 1.3749,-22.39952 -10.83293,11.0155 0,0 z m -8.23858,-1.61674 c -3.53025,-22.34347 -20.00836,-1.85293 -0.95697,1.1872 l 0.95697,-1.1872 0,0 z m 18.10057,-0.21542 c -3.1306,-6.83373 -4.83151,2.60017 0,0 z m 107.21167,30.08778 c -51.737,-24.21652 -105.22298,-44.74271 -156.91579,-68.93548 56.44393,20.89767 110.57116,48.01349 166.9734,69.19252 5.66565,-27.62222 7.97608,-56.05319 -27.65117,-58.68431 -67.47691,-28.45272 -135.0472,-57.2467 -202.89299,-84.46823 -7.5496,28.37208 -0.46995,56.74433 33.28863,60.91351 12.28268,6.01079 -28.86033,-9.56342 -37.32997,-14.56284 -0.50868,-23.87974 -12.44931,-69.86735 24.3891,-41.28277 72.4658,29.41484 144.50716,59.88549 216.65513,90.04398 -1.42544,10.76204 8.87448,70.12748 -16.51634,47.78362 z M 389.12488,555.6916 c -3.86378,-4.18704 12.76911,-14.7084 3.37823,0.42264 l -3.37823,-0.42264 0,0 z m -6.40258,-4.90578 c -4.19239,-18.21429 9.51153,1.39976 0,0 z m -16.2037,-6.9318 c -11.58882,-15.31755 21.36535,-1.52056 1.42173,2.24442 l -1.42173,-2.24442 0,0 z m -51.77338,-2.57008 c -3.0316,-22.65212 14.28653,-4.02405 0,0 z m 109.50073,-1.682 c -79.38968,-33.76227 -159.5151,-65.86579 -238.76485,-99.90335 -0.46986,-6.84519 -13.86938,-49.86108 4.68238,-40.58313 80.68293,31.72245 161.37032,63.70195 240.66315,98.71948 -1.96416,11.719 2.80523,36.99623 -6.58068,41.767 z m -4.62119,-27.40822 c -2.26583,-12.48926 -24.49874,-8.07195 -6.46967,1.39397 2.96884,-3.38363 6.6563,11.37023 6.46967,-1.39397 z m -29.74991,2.7239 c 11.4713,-25.55026 -44.11259,-23.19182 -12.84445,-0.0876 3.8906,1.7036 9.1075,3.01825 12.84445,0.0876 z m -13.29362,-3.30708 c -12.17461,-33.75607 24.92462,5.7918 0,0 z m 22.54808,-6.27407 c 3.26255,-27.33382 -10.58557,15.53671 0,0 z m -34.70924,2.69548 c -3.34466,-9.05955 1.59063,-28.19068 -14.45608,-19.85071 -3.75037,27.62987 4.51519,4.03988 14.45608,19.85071 z m -8.87585,-13.71156 c -3.6137,-12.37243 9.03719,1.75982 0,0 z m -27.23414,-4.62718 c 1.93037,-8.45186 31.01399,-1.76125 11.52792,-19.86966 -21.15605,-26.30243 -29.97895,23.89113 -12.09771,24.28148 l 0.56979,-4.41182 0,0 z m 1.35546,-9.93707 c -7.01527,-22.35101 17.9896,3.03721 0,0 z m -26.56987,-1.62053 c 6.46068,-15.45821 -22.17592,-25.8019 -11.67021,-0.15078 5.78595,-9.17 14.9075,14.72259 11.67021,0.15078 z m -7.90889,-10.0612 c 0.28385,-12.26529 7.7346,6.09228 0,0 z m -10.50086,5.9401 c -7.62599,-6.6693 -2.91835,-10.86923 -2.50541,-15.78166 -8.34785,-19.52844 -15.48602,21.92527 2.50541,15.78166 z m -17.56973,-13.34814 c 8.52192,-19.7271 -8.78021,9.24111 -8.80455,-14.52636 -8.21856,14.95139 -17.64828,-19.39467 -13.79263,4.00517 2.36374,23.33903 14.52185,-7.11415 18.02455,16.51819 l 2.03253,-1.30324 2.5401,-4.69376 0,0 z m -29.22896,-7.67741 c 8.96222,-11.71474 -16.12627,-26.94956 -3.30522,-6.1629 -17.66493,16.41386 -1.71971,-33.56855 -17.97461,-6.77542 1.01253,8.02377 13.64942,18.58732 21.27983,12.93832 z m -27.9314,-18.93941 c -7.09894,-18.588 23.18343,-7.41288 -4.2923,-18.83596 -17.97205,-7.50166 -13.29918,-3.94554 -5.36123,6.81272 -5.22057,11.0928 10.46964,43.79038 9.65353,12.02324 z m 140.9672,103.96359 c -1.86608,-19.85723 11.53707,-6.31362 0,0 z m -56.47275,-4.75936 c 3.92635,-3.735 -12.70587,-20.19447 -2.70683,-14.79655 -4.20773,13.19019 18.80801,-2.71949 5.17488,15.54618 l -2.46811,-0.74963 6e-5,0 z m 12.57214,-1.35344 c 1.67216,-17.59984 4.57721,6.66498 0,0 z m 31.26934,1.35545 c 3.7328,-5.3057 4.97456,2.94983 0,0 z m -7.36139,-4.58888 c -2.03155,-22.5023 12.35492,1.19941 0,0 z m 8.58444,0.27783 c -5.63802,-8.59093 11.81835,0.91133 0,0 z m -25.28187,-6.02888 c -16.81894,-10.69043 22.90816,8.84076 -2.89891,-9.87484 -11.34821,-21.47644 27.10872,21.74849 2.89891,9.87484 z m -70.52755,-2.49534 c -22.21508,-10.92451 22.76245,8.63247 0,0 z m 44.82583,-7.89814 c 3.7979,-18.85279 13.34882,1.10389 0,0 z m -6.39569,-4.83907 c -1.8974,-17.97608 7.90088,-0.85187 0,0 z m -12.57063,-4.285 c -3.88415,-18.38231 11.01132,-7.68038 0,0 z m -11.68189,-3.91974 c 5.06588,-3.33578 3.43154,3.42176 0,0 z m -6.29665,-5.28098 c -2.23042,-16.59199 8.79428,-1.41508 0,0 z m -9.70809,-2.59282 c -4.1701,-13.827 6.53398,-4.44499 0,0 z m -10.23922,-4.49446 c 0.0674,-11.25678 -11.76482,4.83243 -14.09659,-9.8666 -7.00006,9.76235 -0.79118,-27.04123 4.72858,0.30965 5.93041,1.0791 14.89783,-9.37411 10.86249,10.19676 l -0.70089,0.50301 -0.79359,-1.14282 0,0 z m 224.03101,129.43478 c -5.9662,-8.03283 -2.8355,5.39386 0,0 z m -2.77271,-5.55898 c -2.78192,-10.63685 -2.9342,10.81234 0,0 z m -5.70538,-2.67263 c -1.05875,-8.61352 -4.26154,10.66847 0,0 z m 54.77545,-130.22615 c -6.53768,-5.82733 -2.42978,4.93103 0,0 z M 461.21549,465.441 c -3.899,-12.90055 -4.16099,11.23967 0,0 z M 341.06448,413.01741 c -4.19462,-10.76633 -5.97899,7.86453 0,0 z m -17.24671,-4.09426 c 4.07188,-13.61313 -14.27756,7.43717 0,0 z m -13.09119,-1.68635 c -8.68587,-0.94057 4.60127,3.52117 0,0 z m -93.52339,-19.49334 c -12.28467,-10.67491 -41.1808,-15.75903 -11.50523,-3.1025 3.76165,0.14255 7.61396,5.18906 11.50523,3.1025 z m 249.0761,288.88027 c -1.85021,-10.04468 11.56177,2.4796 0,0 z M 362.3573,652.11496 c -20.77908,-1.21393 -31.58153,-33.18433 -5.52301,-11.57415 6.02016,1.45938 38.58389,12.77188 21.56739,19.11481 -5.45383,-2.28494 -10.72449,-4.96863 -16.04438,-7.54066 z M 311.02672,620.5439 c 1.15678,-3.59779 3.30827,3.47266 0,0 z m -37.43166,-15.47452 c 2.91544,-2.72604 4.79204,3.59188 0,0 z m -128.37515,-77.988 c -5.2908,-41.01723 -2.61182,-83.47803 -2.52965,-125.19335 8.44635,-14.49572 -14.36825,-62.72131 4.64072,-44.77609 -1.71864,28.64721 0.34699,58.73154 0.62799,88.06892 -2.01965,24.47098 4.40781,66.80427 -2.73905,81.90047 l -1e-5,5e-5 z m 389.21543,-34.18683 c -4.12578,-8.85666 14.26767,3.79475 0,0 z m 8.11315,-38.59089 c 9.67289,-25.75838 12.44955,-1.30281 0,0 z m 30.15253,-8.56243 c -12.34465,-27.22712 17.61571,7.96321 0,0 z m -58.23551,-3.12224 c -2.80161,-20.97626 16.17087,1.66461 0,0 z m 99.24935,-3.07793 c 3.01749,-11.35309 1.96745,10.21484 0,0 z m -148.57135,-4.85513 c -20.06496,-22.47662 20.04276,-2.66445 0,0 z m -55.26126,-0.80705 c 4.81989,-1.93063 1.00104,-0.89006 0,0 z m 163.1722,-1.5324 c 10.84137,-14.14365 -14.48631,-4.83208 3.30434,-17.88041 19.19431,-8.2022 1.55248,17.8723 -3.30434,17.88041 z m -174.68718,-2.56457 c -13.49217,-7.99933 14.93631,2.72237 0,0 z m 216.51244,-4.26242 c -8.05294,-14.64943 16.77155,4.4225 0,0 z m -111.45755,-8.35344 c -14.3753,-14.11953 -51.92165,-15.83105 -54.22196,-34.20769 24.44974,3.07703 35.55387,-0.48303 62.20033,-8.11563 -19.33418,8.31651 21.85938,19.77093 -2.30258,33.32407 -2.91184,0.92957 -2.44891,13.31498 -5.67579,8.99925 z M 374.41311,403.2302 c -14.48193,-12.73176 17.06192,-40.77898 0.7459,-14.09457 -4.61489,8.41843 19.84881,21.4905 -0.7459,14.09457 z m 27.65112,-18.4451 c 3.60926,-3.32714 3.60921,3.32715 0,0 z m -25.24236,-14.37466 c -3.99156,-21.27538 -45.25502,-20.89331 -44.64237,-33.86942 24.67924,8.6047 29.53713,8.4264 22.31968,-9.90856 18.70426,0.47921 6.96133,30.7767 31.23397,36.71314 -10.53257,-5.59222 0.51335,13.15833 -8.91128,7.06484 z m 19.00374,0.27385 c -10.32148,-11.32282 14.17269,4.57892 0,0 z m 200.79084,-10.01854 c -22.59553,-6.02077 18.80547,-10.3572 0,0 l 0,0 z M 319.34487,340.07817 c -22.52961,-13.42081 24.86854,9.49714 0,0 z m -30.96199,1.27081 c -15.38672,-9.22728 -2.63323,-10.37306 2.66514,0.3871 l -2.66514,-0.3871 z m -163.50203,-9.58685 c -0.95962,-31.28905 19.80611,10.53889 0,0 z m 314.61504,-7.5134 c -44.3964,-14.35272 70.5161,2.54441 13.69508,0.99955 -4.57164,-0.15866 -9.17087,-0.25294 -13.69508,-0.99955 z m 130.5487,-2.34487 c -0.6969,-14.26667 18.1573,-0.99105 0,0 z m -156.65844,-5.18869 c -11.7919,-8.72309 23.2555,5.09747 0,0 z m 154.70022,-6.06212 c -1.91559,-7.95991 7.82066,4.90531 0,0 z m -423.88471,-4.60593 c 2.29456,-4.79961 2.29451,4.79962 0,0 z m 437.62697,-4.61005 c -23.00195,-0.1565 -13.64764,-34.87612 4.18517,-13.85453 1.36283,13.31064 21.11729,-3.81086 3.14362,14.70355 -2.04482,2.02169 -5.86524,1.73962 -7.32879,-0.84902 z m -139.6443,-9.39569 c -33.37764,-13.39155 -7.02392,-18.61556 17.18269,-8.72818 26.69622,8.73581 -10.51157,12.93702 -17.18269,8.72818 z M 246.02208,263.03707 c -7.69558,-19.827 13.96805,-18.70018 5.69437,-0.267 l -3.5396,1.77194 -2.15477,-1.50494 0,0 z m -65.15895,-1.74467 c -2.5355,-9.25118 6.6654,3.94759 0,0 z m -24.11953,-4.75161 c 2.08184,-6.85044 4.86353,2.73121 0,0 z m 8.71555,-6.42278 c 7.6002,-12.83089 28.2737,-27.11802 7.38326,-6.83695 l -5.1355,4.99768 -2.24776,1.83927 z m 186.69619,-17.34727 c 1.3675,-14.27499 24.00029,6.98063 0,0 l 0,0 z m -165.43871,-5.15173 c 7.79183,-10.16393 26.76867,-25.17017 17.3933,-30.26274 12.06775,-13.98842 23.86445,-14.15144 11.2581,2.01263 -8.68113,9.33852 -18.16664,22.80604 -28.6514,28.25011 z m 27.26504,-31.25889 c -1.12287,-3.33217 -2.27656,3.24449 0,0 z m 335.96073,30.03876 c -11.24794,-6.75661 -24.52824,-22.74939 -4.60769,-6.04016 1.76078,-0.45216 9.24875,12.54527 4.60769,6.04016 z m -27.72716,-20.48097 c -1.25508,-4.85289 7.5516,5.29691 0,0 z M 304.55705,190.07032 c -15.10726,-13.61021 -37.66885,-4.9907 -49.20304,-5.53753 5.56784,-7.37883 16.53572,-7.15425 18.71852,-15.34932 14.60223,3.56646 73.02998,22.16854 34.84543,22.6072 l -4.36091,-1.72035 0,0 z m -56.60961,-3.41571 c -4.46269,-8.72979 10.44783,1.59834 0,0 z m -18.71583,-3.85745 c 18.45133,-18.30164 -20.94835,7.95645 3.90738,-13.22062 3.30419,-16.16688 41.33277,1.56551 12.72891,-2.34007 -2.92336,5.53518 -9.59263,16.52607 -16.63629,15.56069 z"
         id="path4140"
         inkscape:connector-curvature="0" />
      <path
         style="fill:#272425"
         d="m 463.06397,692.5223 c -20.92808,-2.65657 -10.38235,-26.35625 -0.64961,-7.17664 11.59043,6.77558 35.71619,-13.5719 14.51319,6.16383 l -6.76035,2.08001 -7.10323,-1.0672 0,0 z M 729.7068,661.99022 c -69.91172,-17.35385 -142.86617,-29.79059 -206.80832,-64.48234 -32.18277,-1.77711 -29.40487,-34.71026 -22.94016,-60.37777 27.7969,-1.51703 -4.76933,36.18632 24.93999,19.74685 30.73931,-1.4247 57.86713,17.92399 87.34273,24.75112 41.01544,13.83404 82.53984,26.54682 122.31802,43.70112 4.56421,15.74624 -63.44433,-14.94506 -26.28168,1.56961 17.57061,-1.4081 44.02994,24.30492 11.2628,15.11202 -11.28623,-0.50053 32.61548,4.38864 15.38211,21.23284 l -5.21549,-1.25345 0,0 z m -19.03572,-21.41501 c -33.69447,-9.93695 3.90043,4.10601 0,0 z m -291.50844,2.77323 C 336.81918,607.76513 253.49725,574.45383 172.13562,536.72318 c -8.76149,-31.54094 -3.96933,-66.93176 -6.99847,-100.05294 3.61876,-29.51274 -9.81379,-49.92325 -4.60452,-73.79023 3.32965,14.67327 29.7493,19.41172 46.51434,25.32851 10.37754,1.82706 53.17747,20.68873 43.6427,11.89919 -38.20202,-19.79661 28.66321,7.69071 42.5935,12.57748 15.10868,10.64325 30.40798,8.96969 46.39492,17.11342 15.0718,10.11912 32.86373,-10.5127 34.79561,15.81003 5.22845,-3.79403 -3.38855,-21.17576 8.66943,-7.89728 4.30734,22.26308 21.68466,20.32171 35.40459,36.27977 23.82969,-4.31198 44.57073,14.34295 64.9223,9.21877 -3.56897,20.51716 -15.3318,34.20461 -14.52126,62.23708 -2.02042,13.65431 -7.12678,65.72188 -5.69728,25.87992 4.9257,-24.67164 -8.60271,-38.48656 4.02615,-64.39074 2.32404,-28.02298 -13.50757,-6.95341 -8.58408,10.47587 -6.63778,29.82987 -0.42506,63.49636 -16.07549,89.98422 -8.09424,16.11384 10.0624,59.88613 -23.45542,35.95219 z m 8.40699,-6.56134 c 2.72998,-47.12369 7.15379,-94.44966 8.36306,-141.55895 -84.6485,-36.09127 -170.1254,-70.46719 -255.7462,-104.26386 -9.43832,18.1761 0.49095,53.32647 -2.09269,77.72669 -0.11898,33.29251 -6.61911,73.36162 36.36356,78.73153 63.35427,27.71701 128.14874,52.36575 190.97623,81.47092 6.74294,1.76937 16.01459,9.46536 22.13604,7.89367 z M 409.92025,626.364 C 346.76168,596.55576 281.42497,571.63159 217.534,543.67259 c -19.6023,-1.25234 -46.47205,-26.81639 -28.07663,-39.39496 78.77827,32.19206 156.87103,66.07738 234.97066,99.8858 -2.43471,10.41488 4.86253,36.44178 -14.50778,22.20057 z M 332.902,582.79489 c -1.44146,-27.61512 -24.21339,1.55659 -1.42108,1.74516 l 1.42108,-1.74516 z m -6.61119,-5.26104 c 1.06038,-13.15796 2.66293,14.1113 0,0 z m -8.86043,-1.20286 c -0.5509,-31.42553 -23.53453,2.84418 0,0 z m -5.24836,-5.46662 c -3.43397,-5.71989 3.52511,-2.91118 0,0 z m -8.52818,0.45995 c -4.8938,-17.60567 -10.86656,9.43301 0,0 z m -10.15447,-3.8034 c 2.81329,-28.77764 -17.36899,3.54083 0,0 z m -8.96278,-4.67097 c -9.49007,-37.33889 -22.78531,9.31754 0,0 z m -6.78245,-9.66571 c 1.1229,-3.33216 2.27651,3.24452 0,0 z m 25.16785,9.38362 c -10.31849,-12.24477 -5.08513,5.35823 0,0 z m 115.77853,34.18379 c -7.34133,-4.83791 -63.46853,-27.70849 -45.17315,-21.71424 19.45969,5.19092 57.0485,35.8526 48.52245,-5.08606 9.4922,-40.82264 -51.00463,-36.29478 -75.67533,-55.28731 -52.68025,-22.17615 -105.27279,-44.86465 -158.55483,-65.39909 -3.31254,15.45334 -4.15451,52.17245 11.97228,52.60059 -26.66419,0.26132 -16.10881,-52.70424 -10.41439,-55.23796 79.24459,33.02507 158.65294,65.74206 237.78066,99.04786 -3.17171,10.20428 4.91912,55.71599 -8.45769,51.07621 z m -55.45432,-25.3621 c -2.29192,-3.59751 6.77817,3.83125 0,0 z m -8.31814,-3.64106 c -2.65244,-3.27788 5.1371,2.97188 0,0 z m -5.13773,-2.32588 c -4.66405,-3.77754 9.09678,4.55183 0,0 z m -8.72585,-3.29725 c -5.58998,-4.11436 10.0108,3.55147 0,0 z m -8.29138,-3.44397 c -3.96886,-4.75189 8.84816,3.98295 0,0 z m -7.8828,-3.67662 c 1.18872,-3.73018 5.39507,4.37889 0,0 z m 65.34419,-1.14235 c 8.88704,-21.26188 0.99735,12.75887 0,0 z m -71.12068,-1.125 c -11.37425,-5.89723 14.55351,4.52823 0,0 z m 63.15547,-3.32332 c -1.10364,-23.62039 5.49363,12.9555 0,0 z m -76.72111,-2.21324 c -26.04174,-12.69554 25.83241,9.49793 0,0 l 0,0 z m 61.06019,-4.25711 c -10.53355,-14.03129 19.77406,1.6918 1.42398,2.80538 l -1.42398,-2.80538 0,0 z m -51.57628,-1.29011 c 0.41336,-22.62748 10.22334,-5.89289 0,0 z m -23.87649,-1.21312 c -2.65241,-3.27789 5.13711,2.9719 0,0 z m 133.09036,-0.95316 c -79.81905,-34.37887 -160.86672,-66.0295 -240.434,-100.92059 -2.76016,-18.10373 -9.78686,-56.57067 19.54098,-33.90749 76.31407,30.2135 152.62483,60.57737 227.82481,93.45389 -3.09753,12.06526 2.60076,36.61321 -6.93179,41.37419 z m -4.12859,-21.85205 c 2.66338,-15.55384 -9.98088,-9.75574 -14.24323,-14.28811 -5.62346,10.92292 9.98579,10.91023 14.24323,14.28811 z m -30.55278,-1.91722 c 14.31268,-22.72857 -40.40291,-28.30202 -16.22951,-2.80572 4.35187,3.05438 11.11897,7.05957 16.22951,2.80572 z m -11.84579,-3.54464 c -17.37331,-35.51052 26.95196,3.06007 0,0 z m 21.57841,-5.28258 c 4.09734,-38.13905 -13.72168,14.47946 0,0 z m -34.20252,1.26325 c -4.34151,-9.34814 1.88671,-28.38431 -15.48053,-20.51983 -5.80479,22.94462 6.37991,10.33999 15.48053,20.51983 z m -9.8029,-14.51658 c -0.0451,-13.40154 6.11862,5.76162 0,0 z m -26.90906,-1.71322 c -1.57966,-12.03618 30.79509,-1.76245 13.15001,-21.17623 -22.58276,-28.06621 -33.54368,19.78864 -14.02823,24.62345 l 0.76459,-1.18797 0.11363,-2.25925 0,0 z m 1.32662,-12.12503 c -6.23602,-21.7986 16.70341,2.39146 0,0 z m -23.76593,3.71937 c -0.20134,-8.41609 -5.06516,-32.99154 -16.59071,-18.95421 -2.08804,22.41923 6.85501,6.51594 16.59071,18.95421 z M 295.20376,468.118 c 1.45177,-9.36377 5.76761,5.03922 0,0 z m -9.82612,6.1063 c -12.5075,-9.25327 4.72089,-5.91283 -5.10456,-15.78985 15.24314,0.62324 -17.37317,-12.07011 -6.67802,7.8198 -3.01827,5.48212 8.97613,11.32571 11.78258,7.97005 z m -17.55351,-14.12544 c 8.58398,-20.18948 -9.07567,8.00155 -8.65158,-12.89286 -10.80272,5.12316 -7.34032,-1.00614 -16.52507,-6.5127 -1.02292,7.99669 6.09068,30.87445 13.20331,14.18225 3.84931,6.08138 6.49859,21.46445 11.97334,5.22331 z m -32.04726,-5.22331 c 20.51469,-23.72099 -41.73392,-29.7084 -11.28259,-3.0797 3.28816,1.75012 7.37764,4.6338 11.28259,3.0797 z m -8.62482,-4.60262 c -16.98022,-28.4419 21.1236,-3.38823 0,0 z m -17.2104,-15.66606 c -7.83575,-19.2362 23.91383,-7.67356 -2.46325,-18.81073 -16.57494,-7.93181 -19.94497,-6.32784 -7.42956,6.53431 -5.56957,12.02495 10.76465,43.4876 9.89281,12.27642 z m 141.1763,103.83928 c -2.83952,-16.89803 10.08318,-9.38361 0,0 z m -68.2805,-1.64669 c -2.65244,-3.27788 5.1371,2.97188 0,0 z m 12.93934,-3.19828 c -1.20836,-14.03658 11.67556,-12.38353 0,0 z m 42.97709,-0.44278 c 5.06587,-3.33576 3.43157,3.42173 0,0 z m -31.52621,-1.2992 c -0.66355,-17.36571 5.21868,2.63325 0,0 z m 33.37469,-2.69575 c -3.58552,-8.31147 6.84145,1.16201 0,0 z m -9.5929,-1.26125 c -3.06499,-14.55148 8.71462,-0.43069 0,0 z m -11.97315,-2.82346 c -0.76699,-12.11444 10.2851,2.15931 0,0 z m -30.6995,-2.01805 c -0.18139,-15.24959 5.7322,3.4401 0,0 z m 20.90086,-4.19972 c -1.15599,-3.99104 3.20976,4.26445 0,0 z m 8.72084,-1.17709 c -2.65241,-3.27789 5.13711,2.9719 0,0 z m -6.80714,-4.61739 c -8.22556,-17.52341 7.9044,6.34295 0,0 z m -21.84425,-0.51629 c 3.55243,-17.38253 10.52513,1.78718 0,0 z m -7.16285,-5.5021 c -2.29122,-13.91058 6.60548,-1.95453 0,0 z m -12.52983,-4.25383 c -3.80988,-14.88785 8.40191,-5.30139 0,0 z m -10.34508,-3.3157 c 2.27655,-3.24453 1.12288,3.33218 0,0 z m -8.21524,-6.14429 c 0.85341,-13.30094 4.52975,1.25347 0,0 z m -9.26431,-4.51792 c 0.60947,-17.34665 2.33254,13.4382 0,0 z m -9.61073,-3.14489 c -2.32733,-10.92074 -11.3369,7.15212 -13.86187,-9.99208 -8.45107,10.98938 -1.11523,-21.88367 3.63096,2.7921 6.18603,6.93121 14.01867,-18.72719 10.23091,7.19998 z m 212.40012,-3.37649 c -4.33439,-7.72993 -6.81972,3.58961 0,0 z m -69.83816,-31.14176 c -12.42326,-12.91111 -35.3926,-8.57166 -6.80288,0.1805 1.66806,1.29724 15.22923,5.84178 6.80288,-0.1805 z M 264.81479,406.63148 c -4.89081,-3.33133 1.0281,3.14131 0,0 z m 197.47087,192.06604 c 0.80828,-4.10476 0.80828,4.10476 0,0 z M 160.11937,556.31856 c -5.68122,-15.78683 16.03973,5.51463 0,0 l 0,0 z m 346.61488,-75.98393 c -15.00816,-12.89778 16.96507,-18.94554 17.55436,-34.30836 6.42796,-9.49057 35.00562,-40.28748 14.9354,-11.90687 -12.54848,12.67432 -23.21891,36.47616 -32.48976,46.21523 z m -24.51879,-0.52868 c -15.59695,0.0236 -0.18523,-29.95425 -1.01786,-7.10026 5.26255,-2.82836 8.48356,10.85467 1.01786,7.10026 z m 0.0804,-4.06256 c -3.12338,-3.54675 -3.12332,3.54677 0,0 z m 0.69912,-7.11847 c 2.97946,-6.25888 4.14554,4.2986 0,0 z m -127.1091,-40.56233 c 0.55525,-9.85826 11.85182,5.67784 0,0 z m 193.13227,-12.11406 c 4.29981,-9.22684 31.19161,-39.1562 13.59006,-13.28444 -7.26447,0.37377 -6.64139,14.78597 -13.59006,13.28444 z m -52.90779,-7.45927 c -34.40713,-10.24119 7.71292,-39.06128 13.54398,-7.93728 -7.94783,9.74906 -9.36272,-0.41416 -6.88223,10.12661 l -6.66175,-2.18933 0,0 z M 473.2306,398.43909 c 2.36661,-3.37487 3.56139,3.26571 0,0 z m -314.24112,-3.58734 c 1.77105,-4.587 2.86013,3.30253 0,0 z m 301.70949,-5.94151 c -4.31992,-4.96574 8.31757,4.30499 0,0 z m 116.06489,-9.1536 c 4.3473,-3.9295 -1.05868,4.94416 0,0 z M 157.71455,347.49026 c 0.84883,-19.29766 3.97496,11.59409 0,0 z m 89.98733,-3.23508 c -6.43812,-14.72318 11.54026,11.38347 0,0 l 0,0 z m 103.0671,1.64968 c -10.00636,-5.15233 12.08602,2.31486 0,0 z M 280.06473,319.2997 c 3.20542,-4.0144 6.46784,4.01055 0,0 l 0,0 z m -10.16662,-3.24853 c -16.22229,-8.57692 -71.79587,-27.38409 -65.10125,-28.38724 20.2606,10.51674 60.08644,15.18573 68.87654,29.67537 l -3.77529,-1.28813 z"
         id="path4138"
         inkscape:connector-curvature="0" />
    </g>
  </g>
</svg>
